<?xml version="1.0" standalone="no"?>
<!DOCTYPE svg PUBLIC "-//W3C//DTD SVG 1.1//EN" "http://www.w3.org/Graphics/SVG/1.1/DTD/svg11.dtd" >
<svg xmlns="http://www.w3.org/2000/svg">
<metadata>
This is a custom SVG webfont generated by Font Squirrel.
Copyright   : Copyright c 2007 Stephen G Hartke lastname at gmail dot com Licensed under OFL 11 with Reserved Font Name Aurulent
</metadata>
<defs>
<font id="webfontesemOkSM" horiz-adv-x="1290" >
<font-face units-per-em="2048" ascent="1638" descent="-410" />
<missing-glyph horiz-adv-x="512" />
<glyph unicode=" "  horiz-adv-x="512" />
<glyph unicode="&#x09;" horiz-adv-x="512" />
<glyph unicode="&#xa0;" horiz-adv-x="512" />
<glyph unicode="!" horiz-adv-x="618" d="M164 0v291h291v-291h-291zM164 1176v305h291v-305q-29 -367 -29 -711h-233q0 344 -29 711z" />
<glyph unicode="&#x22;" horiz-adv-x="911" d="M82 1348v262h291v-262l-43 -263h-205zM537 1348v262h290v-262l-43 -263h-204z" />
<glyph unicode="#" d="M27 451l26 135h266l60 309h-268l26 135h269l86 451h202l-86 -451h185l86 451h202l-86 -451h269l-27 -135h-266l-60 -309h269l-27 -135h-268l-86 -451h-203l86 451h-184l-86 -451h-203l86 451h-268zM524 586h183l59 309h-182z" />
<glyph unicode="$" horiz-adv-x="1187" d="M82 119v213q209 -131 442 -139v462l-69 25q-63 20 -124 54t-119 84t-94 121t-36 151q0 154 124 257t318 128v198h162v-194q168 -8 311 -66v-237q-215 84 -311 102v-397q207 -78 313.5 -181.5t106.5 -263.5q0 -170 -114.5 -280.5t-305.5 -143.5v-205h-162v193 q-262 4 -442 119zM373 1128q0 -113 151 -184v338q-68 -14 -109.5 -53.5t-41.5 -100.5zM686 213q129 45 129 172q0 119 -129 197v-369z" />
<glyph unicode="%" horiz-adv-x="1566" d="M82 1120.5q0 147.5 97 254t238.5 106.5t239 -106.5t97.5 -254t-97.5 -254t-239 -106.5t-238.5 106.5t-97 254zM211 -37l881 1555h266l-881 -1555h-266zM315 1120q0 -207 102.5 -207t102.5 207t-102.5 207t-102.5 -207zM815 360.5q0 147.5 97.5 254t238.5 106.5 t238.5 -106.5t97.5 -254t-97.5 -254t-238.5 -106.5t-238.5 106.5t-97.5 254zM1049 360.5q0 -206.5 102 -206.5t102 206.5t-102 206.5t-102 -206.5z" />
<glyph unicode="&#x26;" d="M82 416q0 152 84 272.5t205 171.5q-80 141 -80 283q0 162 103.5 268.5t250.5 106.5t250.5 -100.5t103.5 -254.5q0 -125 -71.5 -232.5t-177.5 -166.5l168 -287q25 117 24 264h242q0 -293 -127 -503l141 -238h-270l-37 55q-131 -92 -299 -92q-135 0 -248 48t-187.5 154 t-74.5 251zM373 416q0 -74 21.5 -127t57 -81t74.5 -40t84 -12q104 0 176 63l-288 451q-125 -80 -125 -254zM582 1202q0 -133 43 -233q84 84 84 239q0 117 -63.5 117t-63.5 -123z" />
<glyph unicode="'" horiz-adv-x="454" d="M82 1315v295h291v-295l-37 -293h-217z" />
<glyph unicode="(" horiz-adv-x="706" d="M82 657q0 109 29.5 224.5t96 250t113.5 215.5l136 230h248q-156 -254 -244 -473t-88 -446.5t87 -446.5t245 -475h-248l-136 230q-46 81 -113 215t-96.5 249.5t-29.5 226.5z" />
<glyph unicode=")" horiz-adv-x="706" d="M0 -264q158 256 245 475t87 446.5t-88 446.5t-244 473h248l136 -230q46 -81 112.5 -215.5t96.5 -250t30 -224.5q0 -111 -30 -226.5t-96.5 -249.5t-112.5 -215l-136 -230h-248z" />
<glyph unicode="*" horiz-adv-x="1034" d="M82 606l37 21q55 33 169.5 66.5t149.5 47.5q-31 12 -146.5 46t-172.5 67l-37 20l102 177l35 -21q57 -33 143.5 -114.5t114.5 -104.5q-4 39 -32.5 153.5t-28.5 178.5v41h205v-41q0 -63 -29 -178t-33 -154q29 23 115 104.5t143 114.5l35 21l102 -177l-36 -20 q-55 -33 -170 -66.5t-150 -48.5q31 -12 146.5 -46t173.5 -66l36 -21l-102 -176l-35 21q-57 33 -143 114.5t-115 104.5q4 -39 33 -154t29 -178v-41h-205v41q0 63 28.5 178t32.5 154q-29 -23 -115 -105t-143 -114l-35 -21z" />
<glyph unicode="+" horiz-adv-x="1177" d="M82 532v193h385v360h242v-360h385v-193h-385v-360h-242v360h-385z" />
<glyph unicode="," horiz-adv-x="618" d="M53 -438l111 534v195h291v-195l-219 -534h-183z" />
<glyph unicode="-" horiz-adv-x="614" d="M82 532v193h450v-193h-450z" />
<glyph unicode="." horiz-adv-x="618" d="M164 0v291h291v-291h-291z" />
<glyph unicode="/" horiz-adv-x="692" d="M-2 -264l451 1841h245l-450 -1841h-246z" />
<glyph unicode="0" d="M68 743q0 365 153.5 580t423.5 215q127 0 237.5 -54t182.5 -155q158 -221 158 -586q0 -367 -158 -587q-72 -100 -182.5 -154.5t-237.5 -54.5t-237.5 54t-182.5 155q-157 220 -157 587zM389 743.5q0 -118.5 3 -184t26.5 -161t70.5 -160.5q72 -98 156 -98.5t156 98.5 q47 66 70.5 161t26.5 160.5t3 184t-3 183t-26.5 160t-70.5 160.5q-72 98 -156 98.5t-156 -98.5q-47 -66 -70.5 -161t-26.5 -159.5t-3 -183z" />
<glyph unicode="1" d="M236 0v193h360v1075l-360 -107v193l419 141h234v-1302h287v-193h-940z" />
<glyph unicode="2" d="M82 0v209q47 115 143.5 216t196.5 175l196 148q96 74 157 163.5t61 194.5q0 102 -83 171t-196 69q-203 0 -422 -105v213q178 84 422 84q229 0 399 -120t170 -312q0 -70 -29.5 -138.5t-64.5 -117.5t-107.5 -113.5t-115.5 -96.5l-129 -95q-236 -166 -309 -352h755v-193 h-1044z" />
<glyph unicode="3" d="M164 6v215q246 -82 434 -82q139 0 215 79t76 202q0 51 -23.5 98t-64.5 74q-150 96 -318 96h-112v193h112q143 0 248 66.5t105 180.5q0 94 -53.5 156t-184.5 62q-160 0 -381 -74v215q154 51 381 51q244 0 386 -111.5t142 -298.5q0 -123 -82.5 -204.5t-224.5 -126.5 q100 -18 174 -61.5t113 -98.5t56.5 -109.5t17.5 -107.5q0 -211 -162 -342t-420 -131t-434 59z" />
<glyph unicode="4" d="M20 424v192l717 869h293v-869h203v-192h-203v-424h-293v424h-717zM311 616h426v514z" />
<glyph unicode="5" d="M160 -23v213q166 -51 262 -51q117 0 203 15.5t157 64.5q106 76 107 227q0 78 -39 144.5t-107 97.5q-150 70 -432 70q-41 0 -98 -2v729h913v-193h-671v-346q270 -14 454 -98q121 -55 196 -164t75 -238q0 -68 -17.5 -130t-69 -131.5t-131 -120t-219 -84t-321.5 -33.5 q-166 -1 -262 30z" />
<glyph unicode="6" d="M82 743q0 176 38 315.5t101.5 227.5t153.5 146.5t187 82t208 23.5q178 0 293 -57v-219q-164 84 -293 84q-172 0 -273.5 -127t-117.5 -342q131 92 307 92q250 0 386 -140.5t136 -365.5q0 -133 -43 -233.5t-120.5 -162t-178 -91t-221.5 -29.5q-133 0 -249.5 58t-186.5 167 q-74 115 -100.5 255t-26.5 316zM358 504q0 -147 80 -256t207 -109q272 0 273 324q0 150 -71 241t-161 91q-133 0 -230.5 -84t-97.5 -207z" />
<glyph unicode="7" d="M82 1253v232h1126v-232q-147 -166 -377 -542q-199 -328 -264 -711h-295q57 324 340 795q96 160 363 458h-893z" />
<glyph unicode="8" d="M82 383q0 139 96 245.5t252 170.5q-260 147 -260 375q0 162 141.5 263t334 101t333.5 -101.5t141 -262.5q0 -203 -258 -314q158 -82 252 -203.5t94 -273.5q0 -195 -168 -315.5t-395 -120.5t-395 120.5t-168 315.5zM373 383q0 -117 79.5 -200t192.5 -83t193 83t80 200 q0 219 -343 350q-94 -49 -148 -144t-54 -206zM432 1174q0 -90 75 -145.5t206 -102.5q68 37 106.5 103.5t38.5 144.5q0 88 -62.5 149t-150.5 61t-150.5 -61t-62.5 -149z" />
<glyph unicode="9" d="M82 1022q0 133 43 233.5t121 162t178 91t221 29.5q133 0 250 -58.5t186 -166.5q74 -115 100.5 -255t26.5 -315q0 -381 -168 -581q-90 -109 -227 -162t-293 -53q-178 0 -293 57v219q164 -84 293 -84q172 0 273.5 127t117.5 342q-131 -92 -307 -92q-250 0 -386 140.5 t-136 365.5zM373 1022q0 -150 70.5 -241t160.5 -91q133 0 230.5 84t97.5 207q0 147 -80 256t-207 109q-272 0 -272 -324z" />
<glyph unicode=":" horiz-adv-x="618" d="M164 0v291h291v-291h-291zM164 795v290h291v-290h-291z" />
<glyph unicode=";" horiz-adv-x="618" d="M53 -438l111 534v195h291v-195l-219 -534h-183zM164 795v290h291v-290h-291z" />
<glyph unicode="&#x3c;" horiz-adv-x="1120" d="M82 592v74l958 434v-221l-530 -250l530 -250v-221z" />
<glyph unicode="=" horiz-adv-x="1177" d="M82 340v192h1012v-192h-1012zM82 725v193h1012v-193h-1012z" />
<glyph unicode="&#x3e;" horiz-adv-x="1120" d="M82 158v221l530 250l-530 250v221l958 -434v-74z" />
<glyph unicode="?" d="M119 1217v208q207 92 461 93q166 0 304 -37t231 -123t93 -209q0 -92 -56 -163t-129 -109.5t-156 -95t-119 -113.5q-41 -66 -41 -168v-35h-291v35q0 119 59 213q39 59 119 110t148.5 83t122 87.5t53.5 128.5q0 106 -96.5 154.5t-239.5 48.5q-223 1 -463 -108zM416 0v291 h291v-291h-291z" />
<glyph unicode="@" horiz-adv-x="1796" d="M106 608.5q0 225.5 63.5 392t180.5 267t270.5 148.5t346.5 48q315 0 479 -125q47 -37 80 -84t49 -88t24.5 -105.5t9.5 -102t1 -111.5v-703h-242v138q-143 -137 -293 -138q-68 0 -129 26t-114.5 77t-85 141t-31.5 209q0 113 31.5 202t82 142t118 87t131 47.5t128.5 13.5 q82 0 150 -23q-53 238 -398 238q-289 0 -449.5 -175.5t-160.5 -521.5t160 -521t444 -175q80 0 207 25v-168q-84 -16 -182 -17q-197 0 -352.5 48t-273.5 148.5t-181.5 267.5t-63.5 392.5zM981 633q0 -152 63.5 -223.5t167.5 -71.5q94 0 156 43v506v31v30q-41 14 -84 15 q-106 0 -192 -64q-111 -80 -111 -266z" />
<glyph unicode="A" horiz-adv-x="1513" d="M20 0l572 1485h307l596 -1485h-307l-156 389h-606l-150 -389h-256zM504 592h446l-229 569z" />
<glyph unicode="B" horiz-adv-x="1388" d="M164 0v1485h397q94 0 145.5 -2t127 -10.5t135 -30t110.5 -58.5q78 -55 115 -129.5t37 -150.5q0 -68 -27.5 -122t-75 -91t-99.5 -60.5t-111 -37.5q168 -41 278.5 -142.5t110.5 -255.5q0 -186 -152 -289q-53 -39 -118.5 -61t-150.5 -31.5t-142.5 -11.5t-163.5 -2h-416z M471 203h193q66 0 100.5 2t83.5 13t82 36q70 53 69 147q0 117 -98 205q-47 41 -111.5 60.5t-109.5 22.5t-129 3h-80v-489zM471 895h102q66 0 101 2t86 15.5t86 41.5q78 61 78 146q0 84 -66 135q-29 23 -67.5 33t-67.5 12t-82 2h-170v-387z" />
<glyph unicode="C" horiz-adv-x="1433" d="M66 741q0 223 85 399.5t269 287t444 110.5q242 0 488 -84v-229q-315 111 -488 110q-195 0 -313 -110q-145 -139 -145 -484q0 -342 145 -481q119 -111 297 -110q80 0 176 27.5t159.5 56l168.5 79.5v-254q-231 -113 -496 -112q-256 0 -438 110.5t-267 286.5t-85 397z" />
<glyph unicode="D" horiz-adv-x="1554" d="M164 0v1485h387q127 0 196.5 -4t174 -22.5t188.5 -65.5t158 -125q207 -221 207 -523q0 -311 -222 -528q-80 -78 -169 -125t-201.5 -65.5t-186 -22.5t-209.5 -4h-323zM471 203h125q78 0 120 3t107.5 16.5t116.5 46t96 87.5q131 160 131 392q0 223 -116 385 q-51 70 -124 104.5t-124 39.5t-144 5h-188v-1079z" />
<glyph unicode="E" horiz-adv-x="1349" d="M164 0v1485h1106v-203h-799v-387h637v-203h-637v-489h823v-203h-1130z" />
<glyph unicode="F" horiz-adv-x="1310" d="M164 0v1485h1065v-203h-758v-387h602v-203h-602v-692h-307z" />
<glyph unicode="G" horiz-adv-x="1497" d="M66 741q0 102 21.5 205t80.5 212.5t149.5 191.5t241 135t342.5 53q248 0 516 -86v-225q-342 109 -518 108q-213 0 -336 -110q-158 -139 -157 -484q0 -342 157 -481q123 -111 322 -110q94 0 225 32v348h-156v203h463v-678q-303 -109 -538 -108q-381 0 -597 225t-216 569z " />
<glyph unicode="H" horiz-adv-x="1597" d="M164 0v1485h307v-641h655v641h308v-1485h-308v641h-655v-641h-307z" />
<glyph unicode="I" horiz-adv-x="634" d="M164 0v1485h307v-1485h-307z" />
<glyph unicode="J" horiz-adv-x="1030" d="M20 -6v225q219 -70 306 -69q111 0 174 73q29 33 43 85t16 91t2 111v975h307v-920q0 -123 -4 -188.5t-34.5 -155.5t-92.5 -149q-135 -125 -399 -125q-175 0 -318 47z" />
<glyph unicode="K" horiz-adv-x="1388" d="M164 0v1485h307v-606l526 606h312l-582 -668l627 -817h-307l-484 629l-92 -107v-522h-307z" />
<glyph unicode="L" horiz-adv-x="1241" d="M164 0v1485h307v-1282h750v-203h-1057z" />
<glyph unicode="M" horiz-adv-x="1875" d="M164 0v1485h463l319 -975l297 975h469v-1485h-307v1180l-326 -1076h-307l-352 1076v-1180h-256z" />
<glyph unicode="N" horiz-adv-x="1597" d="M164 0v1485h307l707 -1090v1090h256v-1485h-308l-706 1090v-1090h-256z" />
<glyph unicode="O" horiz-adv-x="1751" d="M66 743q0 221 89 398.5t275 287t447 109.5q387 0 599 -227.5t212 -567.5q0 -166 -52.5 -308t-151 -251.5t-255 -173t-352.5 -63.5q-387 0 -599 226t-212 570zM406 743q0 -344 153 -483q123 -111 317.5 -110.5t317.5 110.5q154 139 154 483q0 342 -154 482 q-123 111 -317.5 110.5t-317.5 -110.5q-153 -140 -153 -482z" />
<glyph unicode="P" horiz-adv-x="1431" d="M164 0v1485h448q145 0 224 -4t189 -30t181 -79q162 -119 162 -321q0 -221 -170 -355q-76 -59 -184.5 -90t-184 -35t-217.5 -4h-141v-567h-307zM471 770h221q70 0 108 2t90 19.5t89 52.5q82 78 82 203q0 113 -80 174q-35 29 -88 43t-92 16t-111 2h-219v-512z" />
<glyph unicode="Q" horiz-adv-x="1751" d="M66 743.5q0 163.5 52 307t151.5 253t255 172t352.5 62.5t353 -63.5t254.5 -173t151 -252t52.5 -306.5q0 -227 -95.5 -407t-259.5 -277q125 -188 338 -188v-203q-176 0 -325.5 89t-219.5 220q-117 -31 -249 -30q-197 0 -353.5 63.5t-255 173t-150.5 253t-52 307zM406 743 q0 -160 31.5 -280.5t121.5 -202.5q123 -111 318 -110q82 0 153 20q-94 131 -268 176l53 199q127 -35 234.5 -106.5t167.5 -155.5q131 141 131 460q0 158 -32 279t-122 203q-123 111 -317.5 110.5t-317.5 -110.5q-90 -82 -121.5 -203t-31.5 -279z" />
<glyph unicode="R" horiz-adv-x="1427" d="M164 0v1485h381q137 0 210.5 -4t176 -31t172.5 -82q152 -119 151 -330q0 -94 -31.5 -176t-112.5 -154.5t-206 -107.5l529 -600h-357l-497 567h-84h-25v-567h-307zM471 770h104q72 0 111 2t93.5 18.5t90.5 49.5q78 70 78 198q0 51 -12 91t-29.5 65t-48.5 43t-54.5 26.5 t-61 13.5t-56.5 5h-51h-10h-154v-512z" />
<glyph unicode="S" horiz-adv-x="1370" d="M82 53v269q297 -172 580 -172q139 0 228 48t89 156q0 92 -76 150.5t-241 113.5l-138 46q-256 84 -349 172t-93 229q0 229 178 351t440 122q219 0 433 -82v-233q-100 39 -152.5 56t-139.5 36.5t-163 19.5t-136.5 -15t-106.5 -59t-46 -116q0 -84 64.5 -123t259.5 -102 l139 -46q231 -76 332.5 -187.5t101.5 -266.5q0 -229 -192.5 -351t-511.5 -122q-312 0 -500 106z" />
<glyph unicode="T" horiz-adv-x="1349" d="M20 1282v203h1311v-203h-502v-1282h-307v1282h-502z" />
<glyph unicode="U" horiz-adv-x="1597" d="M164 571v914h307v-963q0 -72 3 -109.5t22.5 -92t60.5 -91.5q88 -80 241.5 -79.5t241.5 79.5q41 37 60.5 91.5t22.5 92.5t3 109v963h308v-914q0 -92 -3.5 -140t-17.5 -121.5t-49 -130t-94 -101.5q-168 -131 -471 -131t-471 131q-59 45 -94 101.5t-49.5 130t-17.5 121.5 t-3 140z" />
<glyph unicode="V" horiz-adv-x="1490" d="M20 1485h308l454 -1155l432 1155h256l-559 -1485h-307z" />
<glyph unicode="W" horiz-adv-x="2156" d="M20 1485h308l305 -1180l305 1180h307l354 -1182l283 1182h256l-356 -1485h-398l-309 1028l-268 -1028h-404z" />
<glyph unicode="X" horiz-adv-x="1490" d="M-2 0l586 737l-570 748h344l402 -529l420 529h303l-576 -721l582 -764h-344l-414 543l-432 -543h-301z" />
<glyph unicode="Y" horiz-adv-x="1468" d="M20 1485h308l442 -688l424 688h256l-549 -891v-594h-307v594z" />
<glyph unicode="Z" horiz-adv-x="1394" d="M82 0v260l928 1022h-891v203h1196v-260l-928 -1022h928v-203h-1233z" />
<glyph unicode="[" horiz-adv-x="772" d="M82 -264v1841h672v-193h-379l-2 -1456h381v-192h-672z" />
<glyph unicode="\" horiz-adv-x="692" d="M-2 1577h246l450 -1841h-245z" />
<glyph unicode="]" horiz-adv-x="772" d="M20 -72h379l2 1456h-381v193h672v-1841h-672v192z" />
<glyph unicode="^" horiz-adv-x="1054" d="M37 741l360 740h258l361 -740h-260l-230 473l-229 -473h-260z" />
<glyph unicode="_" horiz-adv-x="1024" d="M0 0h1024v-193h-1024v193z" />
<glyph unicode="`" horiz-adv-x="600" d="M82 1481v129h291v-129l108 -355h-182z" />
<glyph unicode="a" horiz-adv-x="1187" d="M86 281q0 176 162 272q94 55 220 75.5t294 24.5v70q0 51 -4 78.5t-21.5 62.5t-59.5 50.5t-110 15.5q-158 0 -372 -101v213q166 80 405 80q94 0 168 -14t121 -33.5t79.5 -58.5t50 -68.5t26 -85t9.5 -88.5t1 -94v-680h-293v109q-168 -145 -344 -146q-145 0 -238.5 89.5 t-93.5 228.5zM377 293q0 -63 40 -100t115 -37q111 0 230 90v252q-205 -2 -297 -58q-88 -59 -88 -147z" />
<glyph unicode="b" horiz-adv-x="1230" d="M154 39v1538h290v-657q129 203 349 202q66 0 124 -21.5t116.5 -71.5t93 -154.5t34.5 -251.5q0 -274 -123 -447q-154 -213 -506 -213q-224 0 -378 76zM444 168q55 -12 105 -12q166 0 228.5 116.5t62.5 321.5q0 184 -39 260t-123 76q-74 0 -138.5 -48t-95.5 -124v-590z" />
<glyph unicode="c" horiz-adv-x="1140" d="M86 543q0 82 16.5 158.5t59.5 155.5t110.5 136.5t178 93t254.5 35.5q172 0 352 -43v-202q-246 53 -350 53q-330 0 -330 -387q0 -104 24.5 -185.5t100.5 -141.5t198 -60q115 0 357 65v-209q-180 -49 -357 -49q-303 0 -458.5 159t-155.5 421z" />
<glyph unicode="d" horiz-adv-x="1230" d="M72 510q0 160 47 280.5t130 191.5t187.5 105.5t229.5 34.5q72 0 122 -4v459h291v-1577h-291v147q-55 -86 -136 -135t-179 -49q-160 0 -280.5 132t-120.5 415zM393 524q0 -184 51.5 -276t143.5 -92q70 0 124 47t76 121v596q-53 10 -104 10q-84 0 -143.5 -31t-90 -89 t-44 -127t-13.5 -159z" />
<glyph unicode="e" horiz-adv-x="1222" d="M72 559q0 127 34.5 227.5t90 162t130 102.5t147.5 56t148.5 15t146.5 -16t138.5 -55t116.5 -97.5t80 -150.5t31 -207q0 -41 -5 -86h-737q2 -104 24.5 -176t64.5 -110t95.5 -53t129.5 -15q176 0 391 75v-192q-215 -76 -410 -76q-129 0 -237.5 35t-194.5 104.5t-135 187 t-49 269.5zM406 682h434q-27 268 -205 268q-86 0 -147.5 -67.5t-81.5 -200.5z" />
<glyph unicode="f" horiz-adv-x="864" d="M74 903v172h192q2 104 10.5 176t33 145.5t69.5 118t122 72t185 27.5q106 0 199 -29v-196q-113 33 -164 32q-47 0 -80 -19.5t-48 -43t-23.5 -76.5t-9.5 -86t-1 -109v-12h291v-172h-291v-903h-293v903h-192z" />
<glyph unicode="g" horiz-adv-x="1163" d="M72 700q0 53 15 108.5t52 113t92.5 101.5t142.5 71.5t193 27.5q135 0 242 -45q150 141 326 142v-193q-111 0 -193 -37q121 -123 121 -289q0 -180 -137.5 -300.5t-358.5 -120.5q-51 0 -98 6q-4 -8 -4 -19q0 -63 139 -84l287 -57q274 -47 274 -238q0 -283 -565 -282h-14 h-17q-305 0 -483 39v221q319 -68 623 -68q76 0 120.5 11.5t44.5 48.5q0 51 -67 63q-4 2 -6 2l-287 55q-45 8 -76.5 16.5t-73.5 27t-69 41t-46.5 60.5t-19.5 85q0 76 56 139q-98 55 -155.5 149t-57.5 205zM393 700q0 -145 58 -192q43 -35 116 -35q61 0 99.5 20.5t52.5 60.5 t18 69.5t4 76.5q0 147 -57 195q-47 35 -117 35q-49 0 -83.5 -16.5t-52 -37t-27 -56.5t-10.5 -58.5t-1 -61.5z" />
<glyph unicode="h" horiz-adv-x="1275" d="M154 0v1577h290v-614q156 160 359 159q59 0 107 -11t81 -35.5t57.5 -48t38 -66.5t22.5 -69t12 -78t3 -72v-70v-672h-290v719q0 39 -1.5 61.5t-9.5 55t-22.5 50t-43 31t-69.5 13.5q-137 0 -244 -117v-813h-290z" />
<glyph unicode="i" horiz-adv-x="598" d="M154 0v1085h290v-1085h-290zM154 1257v228h290v-228h-290z" />
<glyph unicode="j" horiz-adv-x="598" d="M-154 -199q113 -41 152 -41q45 0 74.5 14.5t46 35t25 59.5t9.5 67.5t1 81.5v1067h290v-1003q0 -109 -3 -166t-25.5 -134t-65.5 -120q-94 -94 -311 -94q-111 0 -193 29v204zM154 1257v228h290v-228h-290z" />
<glyph unicode="k" horiz-adv-x="1114" d="M154 0v1577h290v-879l297 387h283l-344 -450l410 -635h-275l-93 133l-113 153l-95 130l-70 -90v-326h-290z" />
<glyph unicode="l" horiz-adv-x="598" d="M154 0v1577h290v-1577h-290z" />
<glyph unicode="m" horiz-adv-x="1894" d="M154 0v1085h290v-98q137 135 318 135q96 0 178 -41t121 -131q145 172 348 172q158 0 246 -90q41 -43 61.5 -109.5t23.5 -114.5t3 -140v-668h-291v717q0 39 -1 61.5t-9 55t-23.5 51t-45.5 32t-73 13.5q-119 0 -210 -105q6 -49 6 -157v-668h-291v717q0 39 -1 61.5t-9.5 55 t-23.5 51t-45 32t-73 13.5q-119 0 -209 -101v-829h-290z" />
<glyph unicode="n" horiz-adv-x="1275" d="M154 0v1085h290v-122q156 160 359 159q59 0 107 -11t81 -35.5t57.5 -48t38 -66.5t22.5 -69t12 -78t3 -72v-70v-672h-290v719q0 39 -1.5 61.5t-9.5 55t-22.5 50t-43 31t-69.5 13.5q-137 0 -244 -117v-813h-290z" />
<glyph unicode="o" horiz-adv-x="1280" d="M72 542.5q0 245.5 148.5 412.5t420.5 167t420.5 -167t148.5 -412.5t-148.5 -412.5t-420.5 -167t-420.5 167t-148.5 412.5zM393 543q0 -74 4 -121t24.5 -105.5t59.5 -97.5q63 -63 159.5 -63t160.5 63q55 55 71.5 132t16.5 192q0 74 -4 121t-24.5 105t-59.5 97 q-63 63 -159.5 63.5t-160.5 -63.5q-55 -55 -71.5 -131.5t-16.5 -191.5z" />
<glyph unicode="p" horiz-adv-x="1230" d="M154 -395v1480h290v-165q129 203 349 202q66 0 124 -21.5t116.5 -71.5t93 -154.5t34.5 -251.5q0 -274 -123 -447q-76 -104 -194.5 -158.5t-311.5 -54.5q-45 0 -88 4v-362h-290zM444 168q55 -12 105 -12q86 0 145.5 33.5t90 97t43 136.5t12.5 171q0 184 -39 260t-123 76 q-74 0 -138.5 -48t-95.5 -124v-590z" />
<glyph unicode="q" horiz-adv-x="1230" d="M72 510q0 313 165.5 462.5t428 149.5t413.5 -75v-1442h-291v542q-55 -86 -136 -135t-179 -49q-160 0 -280.5 132t-120.5 415zM393 524q0 -184 51.5 -276t143.5 -92q70 0 124 47t76 121v596q-53 10 -104 10q-84 0 -143.5 -31t-90 -89t-44 -127t-13.5 -159z" />
<glyph unicode="r" horiz-adv-x="931" d="M154 0v1085h290v-211q55 115 145.5 181.5t213.5 66.5q63 0 94 -6v-239q-66 14 -117 14q-117 0 -209 -67.5t-127 -174.5v-649h-290z" />
<glyph unicode="s" horiz-adv-x="1103" d="M121 16v222q182 -82 430 -82q82 0 130 33.5t48 93.5q0 53 -36 79.5t-97 47.5l-238 75q-104 35 -170.5 115t-66.5 184q0 152 142.5 245t346.5 93q137 0 301 -41v-207q-221 55 -313 56q-186 0 -186 -99q0 -29 22.5 -50t43 -30.5t61.5 -21.5l237 -78q244 -80 244 -309 q0 -172 -140.5 -275.5t-371.5 -103.5q-270 0 -387 53z" />
<glyph unicode="t" horiz-adv-x="876" d="M74 903v172h192v256h293v-256h283v-172h-283v-551q0 -51 3 -77.5t15.5 -58.5t43 -46t79.5 -14q41 0 142 14v-193q-121 -14 -209 -14q-76 0 -133.5 11.5t-96 26.5t-64.5 48t-40 61.5t-21.5 81t-9.5 91.5t-2 106v514h-192z" />
<glyph unicode="u" horiz-adv-x="1275" d="M154 418v667h290v-716q0 -49 3.5 -78t16.5 -65t45 -53t83 -17q135 0 242 116v813h290v-1085h-290v123q-154 -160 -353 -160q-156 0 -241 92q-41 43 -60.5 109.5t-22.5 115t-3 138.5z" />
<glyph unicode="v" horiz-adv-x="1148" d="M20 1085h291l297 -766l281 766h241l-397 -1085h-291z" />
<glyph unicode="w" horiz-adv-x="1675" d="M20 1085h263l235 -796l217 796h262l203 -794l213 794h242l-289 -1085h-356l-158 621l-168 -621h-342z" />
<glyph unicode="x" horiz-adv-x="1148" d="M0 0l420 561l-391 524h290l271 -362l270 362h283l-412 -550l399 -535h-290l-279 373l-278 -373h-283z" />
<glyph unicode="y" horiz-adv-x="1148" d="M20 1085h291l299 -759l279 759h241l-540 -1480h-244l119 323z" />
<glyph unicode="z" horiz-adv-x="1140" d="M86 0v227l657 666h-628v192h942v-227l-658 -665h658v-193h-971z" />
<glyph unicode="{" horiz-adv-x="831" d="M20 561v193q137 0 238 100v379q0 156 139.5 250t327.5 94h86v-193h-86q-92 0 -158.5 -39.5t-66.5 -111.5v-412q0 -68 -148 -164q147 -96 148 -165v-412q0 -72 66.5 -112t158.5 -40h86v-192h-86q-188 0 -327.5 94t-139.5 250v381q-105 100 -238 100z" />
<glyph unicode="|" horiz-adv-x="569" d="M164 -264v1841h242v-1841h-242z" />
<glyph unicode="}" horiz-adv-x="831" d="M20 -72h86q92 0 159 40t67 112v412q0 70 147 165q-147 96 -147 164v412q0 72 -66.5 111.5t-159.5 39.5h-86v193h86q188 0 327.5 -94t139.5 -250v-379q100 -100 238 -100v-193q-133 0 -238 -100v-381q0 -156 -139 -250t-328 -94h-86v192z" />
<glyph unicode="~" horiz-adv-x="1331" d="M82 436q0 174 109.5 298t261.5 124q66 0 124 -27.5t99 -66.5t75.5 -78t68.5 -66.5t65 -27.5q27 0 43 19.5t22 60.5t7 69.5t1 79.5h291q0 -174 -109.5 -298t-260.5 -124q-55 0 -106.5 19.5t-86.5 49.5t-69.5 64.5t-60.5 64.5t-54.5 49.5t-55.5 19.5t-43 -19.5t-22 -60.5 t-7 -70t-1 -80h-291z" />
<glyph unicode="&#xa8;" horiz-adv-x="1454" d="M322 1257v228h292v-228h-292zM840 1257v228h293v-228h-293z" />
<glyph unicode="&#xaa;" horiz-adv-x="1187" d="M86 281q0 176 162 272q94 55 220 75.5t294 24.5v70q0 51 -4 78.5t-21.5 62.5t-59.5 50.5t-110 15.5q-158 0 -372 -101v213q166 80 405 80q94 0 168 -14t121 -33.5t79.5 -58.5t50 -68.5t26 -85t9.5 -88.5t1 -94v-680h-293v109q-168 -145 -344 -146q-145 0 -238.5 89.5 t-93.5 228.5zM377 293q0 -63 40 -100t115 -37q111 0 230 90v252q-205 -2 -297 -58q-88 -59 -88 -147z" />
<glyph unicode="&#xad;" horiz-adv-x="614" d="M82 532v193h450v-193h-450z" />
<glyph unicode="&#xaf;" horiz-adv-x="1454" d="M289 1257v193h876v-193h-876z" />
<glyph unicode="&#xb2;" d="M82 0v209q47 115 143.5 216t196.5 175l196 148q96 74 157 163.5t61 194.5q0 102 -83 171t-196 69q-203 0 -422 -105v213q178 84 422 84q229 0 399 -120t170 -312q0 -70 -29.5 -138.5t-64.5 -117.5t-107.5 -113.5t-115.5 -96.5l-129 -95q-236 -166 -309 -352h755v-193 h-1044z" />
<glyph unicode="&#xb3;" d="M164 6v215q246 -82 434 -82q139 0 215 79t76 202q0 51 -23.5 98t-64.5 74q-150 96 -318 96h-112v193h112q143 0 248 66.5t105 180.5q0 94 -53.5 156t-184.5 62q-160 0 -381 -74v215q154 51 381 51q244 0 386 -111.5t142 -298.5q0 -123 -82.5 -204.5t-224.5 -126.5 q100 -18 174 -61.5t113 -98.5t56.5 -109.5t17.5 -107.5q0 -211 -162 -342t-420 -131t-434 59z" />
<glyph unicode="&#xb4;" horiz-adv-x="747" d="M139 1257l234 324h291l-349 -324h-176z" />
<glyph unicode="&#xb9;" d="M236 0v193h360v1075l-360 -107v193l419 141h234v-1302h287v-193h-940z" />
<glyph unicode="&#xba;" horiz-adv-x="1280" d="M72 542.5q0 245.5 148.5 412.5t420.5 167t420.5 -167t148.5 -412.5t-148.5 -412.5t-420.5 -167t-420.5 167t-148.5 412.5zM393 543q0 -74 4 -121t24.5 -105.5t59.5 -97.5q63 -63 159.5 -63t160.5 63q55 55 71.5 132t16.5 192q0 74 -4 121t-24.5 105t-59.5 97 q-63 63 -159.5 63.5t-160.5 -63.5q-55 -55 -71.5 -131.5t-16.5 -191.5z" />
<glyph unicode="&#xc0;" horiz-adv-x="1513" d="M20 0l572 1485h307l596 -1485h-307l-156 389h-606l-150 -389h-256zM369 1980h290l234 -323h-176zM504 592h446l-229 569z" />
<glyph unicode="&#xc1;" horiz-adv-x="1513" d="M20 0l572 1485h307l596 -1485h-307l-156 389h-606l-150 -389h-256zM504 592h446l-229 569zM543 1657l233 323h291l-348 -323h-176z" />
<glyph unicode="&#xc2;" horiz-adv-x="1513" d="M20 0l572 1485h307l596 -1485h-307l-156 389h-606l-150 -389h-256zM287 1657l286 264h291l287 -264h-233l-199 151l-199 -151h-233zM504 592h446l-229 569z" />
<glyph unicode="&#xc3;" horiz-adv-x="1513" d="M162 1698q0 174 109.5 298t261.5 124q66 0 124 -27.5t99 -66.5t75.5 -78t68.5 -66.5t65 -27.5q27 0 43 19.5t22 60.5t7 69.5t1 79.5h291q0 -174 -109.5 -298t-260.5 -124q-55 0 -106.5 19.5t-86.5 49.5t-69.5 64.5t-60.5 64.5t-54.5 49.5t-55.5 19.5t-43 -19.5t-22 -60.5 t-7 -70t-1 -80h-291zM20 0l572 1485h307l596 -1485h-307l-156 389h-606l-150 -389h-256zM504 592h446l-229 569z" />
<glyph unicode="&#xc4;" horiz-adv-x="1513" d="M20 0l572 1485h307l596 -1485h-307l-156 389h-606l-150 -389h-256zM313 1657v227h293v-227h-293zM504 592h446l-229 569zM831 1657v227h293v-227h-293z" />
<glyph unicode="&#xc5;" horiz-adv-x="1513" d="M20 0l572 1485h307l596 -1485h-307l-156 389h-606l-150 -389h-256zM369 1964q0 135 103 227.5t246.5 92.5t247 -92.5t103.5 -227.5t-103.5 -227t-247 -92t-246.5 92t-103 227zM504 592h446l-229 569zM545 1964q0 -72 51 -123t123 -51t123 51t51 123t-51 123t-123 51 t-123 -51t-51 -123z" />
<glyph unicode="&#xc8;" horiz-adv-x="1349" d="M164 0v1485h1106v-203h-799v-387h637v-203h-637v-489h823v-203h-1130zM369 1980h290l234 -323h-176z" />
<glyph unicode="&#xc9;" horiz-adv-x="1349" d="M164 0v1485h1106v-203h-799v-387h637v-203h-637v-489h823v-203h-1130zM541 1657l233 323h291l-348 -323h-176z" />
<glyph unicode="&#xca;" horiz-adv-x="1349" d="M164 0v1485h1106v-203h-799v-387h637v-203h-637v-489h823v-203h-1130zM285 1657l286 264h291l287 -264h-234l-198 151l-199 -151h-233z" />
<glyph unicode="&#xcb;" horiz-adv-x="1349" d="M164 0v1485h1106v-203h-799v-387h637v-203h-637v-489h823v-203h-1130zM311 1657v227h293v-227h-293zM829 1657v227h293v-227h-293z" />
<glyph unicode="&#xcc;" horiz-adv-x="634" d="M-31 1980h291l234 -323h-177zM164 0v1485h307v-1485h-307z" />
<glyph unicode="&#xcd;" horiz-adv-x="634" d="M141 1657l234 323h291l-349 -323h-176zM164 0v1485h307v-1485h-307z" />
<glyph unicode="&#xce;" horiz-adv-x="634" d="M-115 1657l287 264h291l287 -264h-234l-199 151l-198 -151h-234zM164 0v1485h307v-1485h-307z" />
<glyph unicode="&#xcf;" horiz-adv-x="634" d="M-88 1657v227h293v-227h-293zM164 0v1485h307v-1485h-307zM430 1657v227h293v-227h-293z" />
<glyph unicode="&#xd0;" horiz-adv-x="1554" d="M16 641v203h148v641h387q127 0 196.5 -4t174 -22.5t188.5 -65.5t158 -125q207 -221 207 -523q0 -311 -222 -528q-80 -78 -169 -125t-201.5 -65.5t-186 -22.5t-209.5 -4h-323v641h-148zM471 203h125q78 0 120 3t107.5 16.5t116.5 46t96 87.5q131 160 131 392 q0 223 -116 385q-51 70 -124 104.5t-124 39.5t-144 5h-188v-438h313v-203h-313v-438z" />
<glyph unicode="&#xd1;" horiz-adv-x="1597" d="M215 1698q0 174 109.5 298t261.5 124q66 0 124 -27.5t99 -66.5t75.5 -78t68.5 -66.5t65 -27.5q27 0 43 19.5t22 60.5t7 69.5t1 79.5h291q0 -174 -109.5 -298t-260.5 -124q-55 0 -106.5 19.5t-86.5 49.5t-69.5 64.5t-60.5 64.5t-54.5 49.5t-55.5 19.5t-43 -19.5t-22 -60.5 t-7 -70t-1 -80h-291zM164 0v1485h307l707 -1090v1090h256v-1485h-308l-706 1090v-1090h-256z" />
<glyph unicode="&#xd2;" horiz-adv-x="1751" d="M66 743q0 221 89 398.5t275 287t447 109.5q387 0 599 -227.5t212 -567.5q0 -166 -52.5 -308t-151 -251.5t-255 -173t-352.5 -63.5q-387 0 -599 226t-212 570zM406 743q0 -344 153 -483q123 -111 317.5 -110.5t317.5 110.5q154 139 154 483q0 342 -154 482 q-123 111 -317.5 110.5t-317.5 -110.5q-153 -140 -153 -482zM526 1980h291l234 -323h-177z" />
<glyph unicode="&#xd3;" horiz-adv-x="1751" d="M66 743q0 221 89 398.5t275 287t447 109.5q387 0 599 -227.5t212 -567.5q0 -166 -52.5 -308t-151 -251.5t-255 -173t-352.5 -63.5q-387 0 -599 226t-212 570zM406 743q0 -344 153 -483q123 -111 317.5 -110.5t317.5 110.5q154 139 154 483q0 342 -154 482 q-123 111 -317.5 110.5t-317.5 -110.5q-153 -140 -153 -482zM700 1657l234 323h291l-348 -323h-177z" />
<glyph unicode="&#xd4;" horiz-adv-x="1751" d="M66 743q0 221 89 398.5t275 287t447 109.5q387 0 599 -227.5t212 -567.5q0 -166 -52.5 -308t-151 -251.5t-255 -173t-352.5 -63.5q-387 0 -599 226t-212 570zM406 743q0 -344 153 -483q123 -111 317.5 -110.5t317.5 110.5q154 139 154 483q0 342 -154 482 q-123 111 -317.5 110.5t-317.5 -110.5q-153 -140 -153 -482zM444 1657l287 264h291l287 -264h-234l-198 151l-199 -151h-234z" />
<glyph unicode="&#xd5;" horiz-adv-x="1751" d="M293 1698q0 174 109.5 298t261.5 124q66 0 124 -27.5t99 -66.5t75.5 -78t68.5 -66.5t65 -27.5q27 0 43 19.5t22 60.5t7 69.5t1 79.5h291q0 -174 -109.5 -298t-260.5 -124q-55 0 -106.5 19.5t-86.5 49.5t-69.5 64.5t-60.5 64.5t-54.5 49.5t-55.5 19.5t-43 -19.5t-22 -60.5 t-7 -70t-1 -80h-291zM66 743q0 221 89 398.5t275 287t447 109.5q387 0 599 -227.5t212 -567.5q0 -166 -52.5 -308t-151 -251.5t-255 -173t-352.5 -63.5q-387 0 -599 226t-212 570zM406 743q0 -344 153 -483q123 -111 317.5 -110.5t317.5 110.5q154 139 154 483 q0 342 -154 482q-123 111 -317.5 110.5t-317.5 -110.5q-153 -140 -153 -482z" />
<glyph unicode="&#xd6;" horiz-adv-x="1751" d="M66 743q0 221 89 398.5t275 287t447 109.5q387 0 599 -227.5t212 -567.5q0 -166 -52.5 -308t-151 -251.5t-255 -173t-352.5 -63.5q-387 0 -599 226t-212 570zM406 743q0 -344 153 -483q123 -111 317.5 -110.5t317.5 110.5q154 139 154 483q0 342 -154 482 q-123 111 -317.5 110.5t-317.5 -110.5q-153 -140 -153 -482zM471 1657v227h293v-227h-293zM989 1657v227h293v-227h-293z" />
<glyph unicode="&#xd9;" horiz-adv-x="1597" d="M164 571v914h307v-963q0 -72 3 -109.5t22.5 -92t60.5 -91.5q88 -80 241.5 -79.5t241.5 79.5q41 37 60.5 91.5t22.5 92.5t3 109v963h308v-914q0 -92 -3.5 -140t-17.5 -121.5t-49 -130t-94 -101.5q-168 -131 -471 -131t-471 131q-59 45 -94 101.5t-49.5 130t-17.5 121.5 t-3 140zM451 1980h290l234 -323h-176z" />
<glyph unicode="&#xda;" horiz-adv-x="1597" d="M164 571v914h307v-963q0 -72 3 -109.5t22.5 -92t60.5 -91.5q88 -80 241.5 -79.5t241.5 79.5q41 37 60.5 91.5t22.5 92.5t3 109v963h308v-914q0 -92 -3.5 -140t-17.5 -121.5t-49 -130t-94 -101.5q-168 -131 -471 -131t-471 131q-59 45 -94 101.5t-49.5 130t-17.5 121.5 t-3 140zM623 1657l233 323h291l-348 -323h-176z" />
<glyph unicode="&#xdb;" horiz-adv-x="1597" d="M164 571v914h307v-963q0 -72 3 -109.5t22.5 -92t60.5 -91.5q88 -80 241.5 -79.5t241.5 79.5q41 37 60.5 91.5t22.5 92.5t3 109v963h308v-914q0 -92 -3.5 -140t-17.5 -121.5t-49 -130t-94 -101.5q-168 -131 -471 -131t-471 131q-59 45 -94 101.5t-49.5 130t-17.5 121.5 t-3 140zM367 1657l286 264h291l287 -264h-234l-198 151l-199 -151h-233z" />
<glyph unicode="&#xdc;" horiz-adv-x="1597" d="M164 571v914h307v-963q0 -72 3 -109.5t22.5 -92t60.5 -91.5q88 -80 241.5 -79.5t241.5 79.5q41 37 60.5 91.5t22.5 92.5t3 109v963h308v-914q0 -92 -3.5 -140t-17.5 -121.5t-49 -130t-94 -101.5q-168 -131 -471 -131t-471 131q-59 45 -94 101.5t-49.5 130t-17.5 121.5 t-3 140zM393 1657v227h293v-227h-293zM911 1657v227h293v-227h-293z" />
<glyph unicode="&#xdd;" horiz-adv-x="1468" d="M20 1485h308l442 -688l424 688h256l-549 -891v-594h-307v594zM559 1657l234 323h290l-348 -323h-176z" />
<glyph unicode="&#xde;" horiz-adv-x="1431" d="M164 0v1485h307v-266h141q145 0 224 -4.5t189 -30t181 -78.5q162 -119 162 -322q0 -221 -170 -356q-76 -59 -184.5 -89t-184 -34t-217.5 -4h-141v-301h-307zM471 504h295q156 0 225.5 85t69.5 189q0 100 -69.5 169t-225.5 69h-295v-512z" />
<glyph unicode="&#xdf;" horiz-adv-x="1406" d="M154 0v1112q0 100 4 153.5t34.5 126t90.5 119.5q135 102 354 103q205 0 343 -94.5t138 -253.5q0 -156 -155 -320q-123 -123 -123 -141q0 -25 25.5 -50.5t48 -37.5t65.5 -33l113 -53q113 -51 172 -118t59 -177q0 -166 -132 -269.5t-347 -103.5q-248 0 -340 47v234 q170 -88 377 -88q70 0 110.5 31.5t40.5 72.5q0 33 -31.5 63.5t-62.5 47t-82 41.5l-113 51q-88 41 -141 118.5t-53 163.5q0 76 43 150t96 124t96 115.5t43 127.5q0 70 -48 114.5t-126 44.5q-92 0 -149 -55q-29 -25 -42 -62.5t-15.5 -65.5t-2.5 -79v-1159h-290z" />
<glyph unicode="&#xe0;" horiz-adv-x="1187" d="M86 281q0 176 162 272q94 55 220 75.5t294 24.5v70q0 51 -4 78.5t-21.5 62.5t-59.5 50.5t-110 15.5q-158 0 -372 -101v213q166 80 405 80q94 0 168 -14t121 -33.5t79.5 -58.5t50 -68.5t26 -85t9.5 -88.5t1 -94v-680h-293v109q-168 -145 -344 -146q-145 0 -238.5 89.5 t-93.5 228.5zM238 1581h290l234 -324h-176zM377 293q0 -63 40 -100t115 -37q111 0 230 90v252q-205 -2 -297 -58q-88 -59 -88 -147z" />
<glyph unicode="&#xe1;" horiz-adv-x="1187" d="M86 281q0 176 162 272q94 55 220 75.5t294 24.5v70q0 51 -4 78.5t-21.5 62.5t-59.5 50.5t-110 15.5q-158 0 -372 -101v213q166 80 405 80q94 0 168 -14t121 -33.5t79.5 -58.5t50 -68.5t26 -85t9.5 -88.5t1 -94v-680h-293v109q-168 -145 -344 -146q-145 0 -238.5 89.5 t-93.5 228.5zM377 293q0 -63 40 -100t115 -37q111 0 230 90v252q-205 -2 -297 -58q-88 -59 -88 -147zM412 1257l233 324h291l-348 -324h-176z" />
<glyph unicode="&#xe2;" horiz-adv-x="1187" d="M86 281q0 176 162 272q94 55 220 75.5t294 24.5v70q0 51 -4 78.5t-21.5 62.5t-59.5 50.5t-110 15.5q-158 0 -372 -101v213q166 80 405 80q94 0 168 -14t121 -33.5t79.5 -58.5t50 -68.5t26 -85t9.5 -88.5t1 -94v-680h-293v109q-168 -145 -344 -146q-145 0 -238.5 89.5 t-93.5 228.5zM156 1257l286 265h291l287 -265h-234l-198 152l-199 -152h-233zM377 293q0 -63 40 -100t115 -37q111 0 230 90v252q-205 -2 -297 -58q-88 -59 -88 -147z" />
<glyph unicode="&#xe3;" horiz-adv-x="1187" d="M16 1282q0 174 109.5 298t261.5 124q66 0 124 -27.5t99 -66.5t75.5 -78t68.5 -66.5t65 -27.5q27 0 43 19.5t22 60.5t7 69.5t1 79.5h291q0 -174 -109.5 -298t-260.5 -124q-55 0 -106.5 19.5t-86.5 49.5t-69.5 64.5t-60.5 64.5t-54.5 49.5t-55.5 19.5t-43 -19.5t-22 -60.5 t-7 -70t-1 -80h-291zM86 281q0 176 162 272q94 55 220 75.5t294 24.5v70q0 51 -4 78.5t-21.5 62.5t-59.5 50.5t-110 15.5q-158 0 -372 -101v213q166 80 405 80q94 0 168 -14t121 -33.5t79.5 -58.5t50 -68.5t26 -85t9.5 -88.5t1 -94v-680h-293v109q-168 -145 -344 -146 q-145 0 -238.5 89.5t-93.5 228.5zM377 293q0 -63 40 -100t115 -37q111 0 230 90v252q-205 -2 -297 -58q-88 -59 -88 -147z" />
<glyph unicode="&#xe4;" horiz-adv-x="1187" d="M86 281q0 176 162 272q94 55 220 75.5t294 24.5v70q0 51 -4 78.5t-21.5 62.5t-59.5 50.5t-110 15.5q-158 0 -372 -101v213q166 80 405 80q94 0 168 -14t121 -33.5t79.5 -58.5t50 -68.5t26 -85t9.5 -88.5t1 -94v-680h-293v109q-168 -145 -344 -146q-145 0 -238.5 89.5 t-93.5 228.5zM182 1257v228h293v-228h-293zM377 293q0 -63 40 -100t115 -37q111 0 230 90v252q-205 -2 -297 -58q-88 -59 -88 -147zM700 1257v228h293v-228h-293z" />
<glyph unicode="&#xe5;" horiz-adv-x="1187" d="M86 281q0 176 162 272q94 55 220 75.5t294 24.5v70q0 51 -4 78.5t-21.5 62.5t-59.5 50.5t-110 15.5q-158 0 -372 -101v213q166 80 405 80q94 0 168 -14t121 -33.5t79.5 -58.5t50 -68.5t26 -85t9.5 -88.5t1 -94v-680h-293v109q-168 -145 -344 -146q-145 0 -238.5 89.5 t-93.5 228.5zM238 1565q0 135 103 227t246.5 92t247 -92t103.5 -227t-103.5 -227.5t-247 -92.5t-246.5 92.5t-103 227.5zM377 293q0 -63 40 -100t115 -37q111 0 230 90v252q-205 -2 -297 -58q-88 -59 -88 -147zM414 1564.5q0 -71.5 51 -122.5t122.5 -51t123 51t51.5 122.5 t-51.5 123t-123 51.5t-122.5 -51.5t-51 -123z" />
<glyph unicode="&#xe8;" horiz-adv-x="1222" d="M72 559q0 127 34.5 227.5t90 162t130 102.5t147.5 56t148.5 15t146.5 -16t138.5 -55t116.5 -97.5t80 -150.5t31 -207q0 -41 -5 -86h-737q2 -104 24.5 -176t64.5 -110t95.5 -53t129.5 -15q176 0 391 75v-192q-215 -76 -410 -76q-129 0 -237.5 35t-194.5 104.5t-135 187 t-49 269.5zM299 1581h291l233 -324h-176zM406 682h434q-27 268 -205 268q-86 0 -147.5 -67.5t-81.5 -200.5z" />
<glyph unicode="&#xe9;" horiz-adv-x="1222" d="M72 559q0 127 34.5 227.5t90 162t130 102.5t147.5 56t148.5 15t146.5 -16t138.5 -55t116.5 -97.5t80 -150.5t31 -207q0 -41 -5 -86h-737q2 -104 24.5 -176t64.5 -110t95.5 -53t129.5 -15q176 0 391 75v-192q-215 -76 -410 -76q-129 0 -237.5 35t-194.5 104.5t-135 187 t-49 269.5zM406 682h434q-27 268 -205 268q-86 0 -147.5 -67.5t-81.5 -200.5zM473 1257l234 324h290l-348 -324h-176z" />
<glyph unicode="&#xea;" horiz-adv-x="1222" d="M72 559q0 127 34.5 227.5t90 162t130 102.5t147.5 56t148.5 15t146.5 -16t138.5 -55t116.5 -97.5t80 -150.5t31 -207q0 -41 -5 -86h-737q2 -104 24.5 -176t64.5 -110t95.5 -53t129.5 -15q176 0 391 75v-192q-215 -76 -410 -76q-129 0 -237.5 35t-194.5 104.5t-135 187 t-49 269.5zM215 1257l287 265h291l286 -265h-233l-199 152l-198 -152h-234zM406 682h434q-27 268 -205 268q-86 0 -147.5 -67.5t-81.5 -200.5z" />
<glyph unicode="&#xeb;" horiz-adv-x="1222" d="M72 559q0 127 34.5 227.5t90 162t130 102.5t147.5 56t148.5 15t146.5 -16t138.5 -55t116.5 -97.5t80 -150.5t31 -207q0 -41 -5 -86h-737q2 -104 24.5 -176t64.5 -110t95.5 -53t129.5 -15q176 0 391 75v-192q-215 -76 -410 -76q-129 0 -237.5 35t-194.5 104.5t-135 187 t-49 269.5zM242 1257v228h293v-228h-293zM406 682h434q-27 268 -205 268q-86 0 -147.5 -67.5t-81.5 -200.5zM760 1257v228h293v-228h-293z" />
<glyph unicode="&#xec;" horiz-adv-x="598" d="M-49 1581h291l233 -324h-176zM154 0v1085h290v-1085h-290z" />
<glyph unicode="&#xed;" horiz-adv-x="598" d="M125 1257l233 324h291l-348 -324h-176zM154 0v1085h290v-1085h-290z" />
<glyph unicode="&#xee;" horiz-adv-x="598" d="M-133 1257l287 265h290l287 -265h-233l-199 152l-199 -152h-233zM154 0v1085h290v-1085h-290z" />
<glyph unicode="&#xef;" horiz-adv-x="598" d="M-106 1257v228h292v-228h-292zM154 0v1085h290v-1085h-290zM412 1257v228h293v-228h-293z" />
<glyph unicode="&#xf0;" horiz-adv-x="1280" d="M86 535q0 131 34 234t86 164.5t124.5 101.5t141.5 54.5t142 14.5q68 0 121 -12q-57 82 -131 151l-276 -100l-43 117l204 73q-106 72 -229 113l191 108q147 -47 276 -135l281 103l43 -117l-209 -76q168 -150 261 -354.5t93 -431.5q0 -133 -33 -236.5t-87 -167t-128 -104.5 t-148.5 -56.5t-158.5 -15.5t-158.5 15.5t-148.5 56.5t-128 103.5t-87 164t-33 232.5zM377 551q0 -199 71.5 -297t192.5 -98q119 0 191.5 97t72.5 290h-2q0 225 -62.5 315t-181.5 90q-133 0 -207.5 -100t-74.5 -297z" />
<glyph unicode="&#xf1;" horiz-adv-x="1275" d="M55 1282q0 174 109.5 298t261.5 124q66 0 124 -27.5t99 -66.5t75.5 -78t68.5 -66.5t65 -27.5q27 0 43 19.5t22 60.5t7 69.5t1 79.5h291q0 -174 -109.5 -298t-260.5 -124q-55 0 -106.5 19.5t-86.5 49.5t-69.5 64.5t-60.5 64.5t-54.5 49.5t-55.5 19.5t-43 -19.5t-22 -60.5 t-7 -70t-1 -80h-291zM154 0v1085h290v-122q156 160 359 159q59 0 107 -11t81 -35.5t57.5 -48t38 -66.5t22.5 -69t12 -78t3 -72v-70v-672h-290v719q0 39 -1.5 61.5t-9.5 55t-22.5 50t-43 31t-69.5 13.5q-137 0 -244 -117v-813h-290z" />
<glyph unicode="&#xf2;" horiz-adv-x="1280" d="M72 542.5q0 245.5 148.5 412.5t420.5 167t420.5 -167t148.5 -412.5t-148.5 -412.5t-420.5 -167t-420.5 167t-148.5 412.5zM291 1581h291l233 -324h-176zM393 543q0 -74 4 -121t24.5 -105.5t59.5 -97.5q63 -63 159.5 -63t160.5 63q55 55 71.5 132t16.5 192q0 74 -4 121 t-24.5 105t-59.5 97q-63 63 -159.5 63.5t-160.5 -63.5q-55 -55 -71.5 -131.5t-16.5 -191.5z" />
<glyph unicode="&#xf3;" horiz-adv-x="1280" d="M72 542.5q0 245.5 148.5 412.5t420.5 167t420.5 -167t148.5 -412.5t-148.5 -412.5t-420.5 -167t-420.5 167t-148.5 412.5zM393 543q0 -74 4 -121t24.5 -105.5t59.5 -97.5q63 -63 159.5 -63t160.5 63q55 55 71.5 132t16.5 192q0 74 -4 121t-24.5 105t-59.5 97 q-63 63 -159.5 63.5t-160.5 -63.5q-55 -55 -71.5 -131.5t-16.5 -191.5zM465 1257l233 324h291l-348 -324h-176z" />
<glyph unicode="&#xf4;" horiz-adv-x="1280" d="M72 542.5q0 245.5 148.5 412.5t420.5 167t420.5 -167t148.5 -412.5t-148.5 -412.5t-420.5 -167t-420.5 167t-148.5 412.5zM209 1257l287 265h290l287 -265h-233l-199 152l-199 -152h-233zM393 543q0 -74 4 -121t24.5 -105.5t59.5 -97.5q63 -63 159.5 -63t160.5 63 q55 55 71.5 132t16.5 192q0 74 -4 121t-24.5 105t-59.5 97q-63 63 -159.5 63.5t-160.5 -63.5q-55 -55 -71.5 -131.5t-16.5 -191.5z" />
<glyph unicode="&#xf5;" horiz-adv-x="1280" d="M57 1282q0 174 109.5 298t261.5 124q66 0 124 -27.5t99 -66.5t75.5 -78t68.5 -66.5t65 -27.5q27 0 43 19.5t22 60.5t7 69.5t1 79.5h291q0 -174 -109.5 -298t-260.5 -124q-55 0 -106.5 19.5t-86.5 49.5t-69.5 64.5t-60.5 64.5t-54.5 49.5t-55.5 19.5t-43 -19.5t-22 -60.5 t-7 -70t-1 -80h-291zM72 542.5q0 245.5 148.5 412.5t420.5 167t420.5 -167t148.5 -412.5t-148.5 -412.5t-420.5 -167t-420.5 167t-148.5 412.5zM393 543q0 -74 4 -121t24.5 -105.5t59.5 -97.5q63 -63 159.5 -63t160.5 63q55 55 71.5 132t16.5 192q0 74 -4 121t-24.5 105 t-59.5 97q-63 63 -159.5 63.5t-160.5 -63.5q-55 -55 -71.5 -131.5t-16.5 -191.5z" />
<glyph unicode="&#xf6;" horiz-adv-x="1280" d="M72 542.5q0 245.5 148.5 412.5t420.5 167t420.5 -167t148.5 -412.5t-148.5 -412.5t-420.5 -167t-420.5 167t-148.5 412.5zM236 1257v228h292v-228h-292zM393 543q0 -74 4 -121t24.5 -105.5t59.5 -97.5q63 -63 159.5 -63t160.5 63q55 55 71.5 132t16.5 192q0 74 -4 121 t-24.5 105t-59.5 97q-63 63 -159.5 63.5t-160.5 -63.5q-55 -55 -71.5 -131.5t-16.5 -191.5zM754 1257v228h293v-228h-293z" />
<glyph unicode="&#xf9;" horiz-adv-x="1275" d="M154 418v667h290v-716q0 -49 3.5 -78t16.5 -65t45 -53t83 -17q135 0 242 116v813h290v-1085h-290v123q-154 -160 -353 -160q-156 0 -241 92q-41 43 -60.5 109.5t-22.5 115t-3 138.5zM289 1581h291l233 -324h-176z" />
<glyph unicode="&#xfa;" horiz-adv-x="1275" d="M154 418v667h290v-716q0 -49 3.5 -78t16.5 -65t45 -53t83 -17q135 0 242 116v813h290v-1085h-290v123q-154 -160 -353 -160q-156 0 -241 92q-41 43 -60.5 109.5t-22.5 115t-3 138.5zM463 1257l233 324h291l-348 -324h-176z" />
<glyph unicode="&#xfb;" horiz-adv-x="1275" d="M154 418v667h290v-716q0 -49 3.5 -78t16.5 -65t45 -53t83 -17q135 0 242 116v813h290v-1085h-290v123q-154 -160 -353 -160q-156 0 -241 92q-41 43 -60.5 109.5t-22.5 115t-3 138.5zM207 1257l287 265h290l287 -265h-233l-199 152l-199 -152h-233z" />
<glyph unicode="&#xfc;" horiz-adv-x="1275" d="M154 418v667h290v-716q0 -49 3.5 -78t16.5 -65t45 -53t83 -17q135 0 242 116v813h290v-1085h-290v123q-154 -160 -353 -160q-156 0 -241 92q-41 43 -60.5 109.5t-22.5 115t-3 138.5zM233 1257v228h293v-228h-293zM752 1257v228h292v-228h-292z" />
<glyph unicode="&#xfd;" horiz-adv-x="1148" d="M20 1085h291l299 -759l279 759h241l-540 -1480h-244l119 323zM399 1257l234 324h291l-349 -324h-176z" />
<glyph unicode="&#xfe;" horiz-adv-x="1230" d="M154 -395v1972h290v-657q129 203 349 202q66 0 124 -21.5t116.5 -71.5t93 -154.5t34.5 -251.5q0 -274 -123 -447q-76 -104 -194.5 -158.5t-311.5 -54.5q-45 0 -88 4v-362h-290zM444 168q55 -12 105 -12q86 0 145.5 33.5t90 97t43 136.5t12.5 171q0 184 -39 260t-123 76 q-74 0 -138.5 -48t-95.5 -124v-590z" />
<glyph unicode="&#xff;" horiz-adv-x="1148" d="M20 1085h291l299 -759l279 759h241l-540 -1480h-244l119 323zM170 1257v228h293v-228h-293zM688 1257v228h293v-228h-293z" />
<glyph unicode="&#x152;" horiz-adv-x="3100" d="M1915 0v1485h1106v-203h-799v-387h637v-203h-637v-489h823v-203h-1130zM66 743q0 221 89 398.5t275 287t447 109.5q387 0 599 -227.5t212 -567.5q0 -166 -52.5 -308t-151 -251.5t-255 -173t-352.5 -63.5q-387 0 -599 226t-212 570zM406 743q0 -344 153 -483 q123 -111 317.5 -110.5t317.5 110.5q154 139 154 483q0 342 -154 482q-123 111 -317.5 110.5t-317.5 -110.5q-153 -140 -153 -482z" />
<glyph unicode="&#x153;" horiz-adv-x="2502" d="M1352 559q0 127 34.5 227.5t90 162t130 102.5t147.5 56t148.5 15t146.5 -16t138.5 -55t116.5 -97.5t80 -150.5t31 -207q0 -41 -5 -86h-737q2 -104 24.5 -176t64.5 -110t95.5 -53t129.5 -15q176 0 391 75v-192q-215 -76 -410 -76q-129 0 -237.5 35t-194.5 104.5t-135 187 t-49 269.5zM1686 682h434q-27 268 -205 268q-86 0 -147.5 -67.5t-81.5 -200.5zM72 542.5q0 245.5 148.5 412.5t420.5 167t420.5 -167t148.5 -412.5t-148.5 -412.5t-420.5 -167t-420.5 167t-148.5 412.5zM393 543q0 -74 4 -121t24.5 -105.5t59.5 -97.5q63 -63 159.5 -63 t160.5 63q55 55 71.5 132t16.5 192q0 74 -4 121t-24.5 105t-59.5 97q-63 63 -159.5 63.5t-160.5 -63.5q-55 -55 -71.5 -131.5t-16.5 -191.5z" />
<glyph unicode="&#x178;" horiz-adv-x="1468" d="M20 1485h308l442 -688l424 688h256l-549 -891v-594h-307v594zM330 1657v227h293v-227h-293zM848 1657v227h293v-227h-293z" />
<glyph unicode="&#x2c6;" horiz-adv-x="1454" d="M295 1257l287 265h290l287 -265h-233l-199 152l-199 -152h-233z" />
<glyph unicode="&#x2dc;" horiz-adv-x="512" d="M-584 160q0 174 109.5 298t261.5 124q66 0 124 -27.5t99 -66.5t75.5 -78t68.5 -66.5t65 -27.5q27 0 43 19.5t22 60.5t7 69.5t1 79.5h291q0 -174 -109.5 -298t-260.5 -124q-55 0 -106.5 19.5t-86.5 49.5t-69.5 64.5t-60.5 64.5t-54.5 49.5t-55.5 19.5t-43 -19.5t-22 -60.5 t-7 -70t-1 -80h-291z" />
<glyph unicode="&#x2000;" horiz-adv-x="1140" />
<glyph unicode="&#x2001;" horiz-adv-x="2283" />
<glyph unicode="&#x2002;" horiz-adv-x="1140" />
<glyph unicode="&#x2003;" horiz-adv-x="2283" />
<glyph unicode="&#x2004;" horiz-adv-x="759" />
<glyph unicode="&#x2005;" horiz-adv-x="569" />
<glyph unicode="&#x2006;" horiz-adv-x="378" />
<glyph unicode="&#x2007;" horiz-adv-x="378" />
<glyph unicode="&#x2008;" horiz-adv-x="284" />
<glyph unicode="&#x2009;" horiz-adv-x="456" />
<glyph unicode="&#x200a;" horiz-adv-x="124" />
<glyph unicode="&#x2010;" horiz-adv-x="614" d="M82 532v193h450v-193h-450z" />
<glyph unicode="&#x2011;" horiz-adv-x="614" d="M82 532v193h450v-193h-450z" />
<glyph unicode="&#x2012;" horiz-adv-x="614" d="M82 532v193h450v-193h-450z" />
<glyph unicode="&#x2013;" horiz-adv-x="1024" d="M82 532v193h860v-193h-860z" />
<glyph unicode="&#x2014;" horiz-adv-x="2048" d="M82 532v193h1884v-193h-1884z" />
<glyph unicode="&#x2018;" horiz-adv-x="536" d="M41 879v194l219 537h182l-110 -537v-194h-291z" />
<glyph unicode="&#x2019;" horiz-adv-x="536" d="M94 879l111 536v195h291v-195l-220 -536h-182z" />
<glyph unicode="&#x201c;" horiz-adv-x="993" d="M82 879v194l219 537h182l-110 -537v-194h-291zM537 879v194l217 537h182l-109 -537v-194h-290z" />
<glyph unicode="&#x201d;" horiz-adv-x="993" d="M55 879l109 536v195h291v-195l-217 -536h-183zM508 879l110 536v195h291v-195l-219 -536h-182z" />
<glyph unicode="&#x2026;" horiz-adv-x="1855" d="M1401 0v291h291v-291h-291zM782 0v291h291v-291h-291zM164 0v291h291v-291h-291z" />
<glyph unicode="&#x202f;" horiz-adv-x="456" />
<glyph unicode="&#x2039;" horiz-adv-x="1120" d="M82 592v74l958 434v-221l-530 -250l530 -250v-221z" />
<glyph unicode="&#x203a;" horiz-adv-x="1120" d="M82 158v221l530 250l-530 250v221l958 -434v-74z" />
<glyph unicode="&#x205f;" horiz-adv-x="569" />
<glyph unicode="&#x2122;" horiz-adv-x="3225" d="M1514 0v1485h463l319 -975l297 975h469v-1485h-307v1180l-326 -1076h-307l-352 1076v-1180h-256zM20 1282v203h1311v-203h-502v-1282h-307v1282h-502z" />
<glyph unicode="&#xe000;" horiz-adv-x="1085" d="M0 1085h1085v-1085h-1085v1085z" />
<glyph unicode="&#xfb01;" horiz-adv-x="1462" d="M1018 0v1085h290v-1085h-290zM1018 1257v228h290v-228h-290zM74 903v172h192q2 104 10.5 176t33 145.5t69.5 118t122 72t185 27.5q106 0 199 -29v-196q-113 33 -164 32q-47 0 -80 -19.5t-48 -43t-23.5 -76.5t-9.5 -86t-1 -109v-12h291v-172h-291v-903h-293v903h-192z" />
<glyph unicode="&#xfb02;" horiz-adv-x="1462" d="M1018 0v1577h290v-1577h-290zM74 903v172h192q2 104 10.5 176t33 145.5t69.5 118t122 72t185 27.5q106 0 199 -29v-196q-113 33 -164 32q-47 0 -80 -19.5t-48 -43t-23.5 -76.5t-9.5 -86t-1 -109v-12h291v-172h-291v-903h-293v903h-192z" />
<glyph unicode="&#xfb03;" horiz-adv-x="2326" d="M1883 0v1085h290v-1085h-290zM1883 1257v228h290v-228h-290zM938 903v172h192q2 104 10.5 176t33 145.5t69.5 118t122 72t185 27.5q106 0 199 -29v-196q-113 33 -164 32q-47 0 -80 -19.5t-48 -43t-23.5 -76.5t-9.5 -86t-1 -109v-12h291v-172h-291v-903h-293v903h-192z M74 903v172h192q2 104 10.5 176t33 145.5t69.5 118t122 72t185 27.5q106 0 199 -29v-196q-113 33 -164 32q-47 0 -80 -19.5t-48 -43t-23.5 -76.5t-9.5 -86t-1 -109v-12h291v-172h-291v-903h-293v903h-192z" />
<glyph unicode="&#xfb04;" horiz-adv-x="2326" d="M1883 0v1577h290v-1577h-290zM938 903v172h192q2 104 10.5 176t33 145.5t69.5 118t122 72t185 27.5q106 0 199 -29v-196q-113 33 -164 32q-47 0 -80 -19.5t-48 -43t-23.5 -76.5t-9.5 -86t-1 -109v-12h291v-172h-291v-903h-293v903h-192zM74 903v172h192q2 104 10.5 176 t33 145.5t69.5 118t122 72t185 27.5q106 0 199 -29v-196q-113 33 -164 32q-47 0 -80 -19.5t-48 -43t-23.5 -76.5t-9.5 -86t-1 -109v-12h291v-172h-291v-903h-293v903h-192z" />
</font>
</defs>
</svg>
