<?xml version="1.0" standalone="no"?>
<!DOCTYPE svg PUBLIC "-//W3C//DTD SVG 1.1//EN" "http://www.w3.org/Graphics/SVG/1.1/DTD/svg11.dtd" >
<svg xmlns="http://www.w3.org/2000/svg">
<metadata>
This is a custom SVG webfont generated by Font Squirrel.
Copyright   : Copyright c 2007 Stephen G Hartke lastname at gmail dot com Licensed under OFL 11 with Reserved Font Name Aurulent
</metadata>
<defs>
<font id="webfontsWB1ou12" horiz-adv-x="1290" >
<font-face units-per-em="2048" ascent="1638" descent="-410" />
<missing-glyph horiz-adv-x="512" />
<glyph unicode=" "  horiz-adv-x="512" />
<glyph unicode="&#x09;" horiz-adv-x="512" />
<glyph unicode="&#xa0;" horiz-adv-x="512" />
<glyph unicode="!" horiz-adv-x="618" d="M164 0l57 291h291l-57 -291h-291zM283 465q68 344 110 711l60 305h290l-59 -305q-100 -367 -168 -711h-233z" />
<glyph unicode="&#x22;" horiz-adv-x="911" d="M336 1085l8 263l51 262h291l-51 -262l-94 -263h-205zM791 1085l8 263l51 262h291l-51 -262l-95 -263h-204z" />
<glyph unicode="#" d="M27 451l26 135h266l60 309h-268l26 135h269l86 451h202l-86 -451h185l86 451h202l-86 -451h269l-27 -135h-266l-60 -309h269l-27 -135h-268l-86 -451h-203l86 451h-184l-86 -451h-203l86 451h-268zM524 586h183l59 309h-182z" />
<glyph unicode="$" horiz-adv-x="1187" d="M104 119l41 213q184 -131 416 -139l90 462l-63 25q-53 18 -102.5 48t-95.5 72t-74.5 100t-28.5 126q0 66 29.5 134.5t89 134t165 114.5t240.5 66l39 198h162l-39 -194q168 -8 299 -66l-45 -237q-201 84 -293 102l-76 -397q166 -70 253 -155t87 -212q0 -78 -29.5 -155.5 t-90 -148.5t-161 -124t-229.5 -74l-39 -205h-162l37 193q-260 4 -420 119zM590 1098q0 -92 119 -154l65 338q-59 -12 -100 -37.5t-57.5 -55.5t-21.5 -51.5t-5 -39.5zM727 213q88 29 128 88t40 125q0 90 -96 156z" />
<glyph unicode="%" horiz-adv-x="1566" d="M205 -37l1181 1555h267l-1182 -1555h-266zM293 1047q0 170 127 302t287 132q121 0 196.5 -82t75.5 -205q0 -170 -127 -302t-287 -132q-123 0 -197.5 82t-74.5 205zM522 1022q0 -109 74 -109q43 0 74.5 38t48 93.5t24 100.5t7.5 76q0 106 -74 106q-43 0 -76 -38t-48 -92 t-22.5 -99t-7.5 -76zM879 287q0 170 127 302t284 132q123 0 199 -82t76 -205q0 -170 -127 -302t-287 -132q-123 0 -197.5 82t-74.5 205zM1108 260q0 -106 74 -106q41 0 73.5 37.5t48 92t23.5 99.5t8 76q0 109 -73 108q-43 0 -76 -37.5t-48.5 -93t-22.5 -100.5t-7 -76z" />
<glyph unicode="&#x26;" d="M154 319q0 168 109.5 322t275.5 219q-35 92 -35 189q0 197 133 333t303 136q127 0 210 -79t83 -204q0 -137 -96.5 -268t-237.5 -203l111 -287q47 115 75 264h242q-55 -293 -225 -503l96 -238h-270l-25 55q-150 -92 -317 -92q-186 0 -309 92t-123 264zM446 340 q0 -100 55.5 -142t139.5 -42q104 0 188 63l-202 451q-92 -53 -136.5 -145.5t-44.5 -184.5zM801 1071q0 -55 12 -102q68 57 102.5 143t34.5 149.5t-47 63.5q-55 0 -78.5 -80t-23.5 -174z" />
<glyph unicode="'" horiz-adv-x="454" d="M317 1022l21 293l57 295h291l-57 -295l-94 -293h-218z" />
<glyph unicode="(" horiz-adv-x="706" d="M195 500q0 100 26.5 202.5t68.5 194.5t120.5 210t154.5 218l199 252h248q-90 -109 -150.5 -189.5t-139.5 -204.5t-126 -231.5t-82 -243t-35 -266.5q0 -172 46 -341t128 -365h-247l-77 190.5t-64 178t-54 207t-16 188.5z" />
<glyph unicode=")" horiz-adv-x="706" d="M-51 -264l149.5 190.5t139 204.5t127 232.5t81 242.5t33.5 266q0 293 -172 705h248q51 -123 76.5 -190.5t62.5 -178t54.5 -207t17.5 -188.5q0 -100 -27.5 -202.5t-69.5 -194.5t-121 -211t-155 -218l-196 -251h-248z" />
<glyph unicode="*" horiz-adv-x="1034" d="M201 606l39 21q63 33 184 66.5t158 47.5q-27 12 -136.5 46t-160.5 67l-33 20l137 177l31 -21q51 -33 120.5 -114.5t94.5 -104.5q2 20 2 43q0 31 -4 92.5t-4 91.5q0 59 8 105l8 41h205l-8 -41q-12 -63 -62.5 -178t-62.5 -154q35 23 136 104.5t165 114.5l39 21l67 -177 l-41 -20q-61 -33 -182 -66.5t-160 -48.5q29 -12 138.5 -46t158.5 -66l35 -21l-137 -176l-31 21q-51 33 -120.5 114.5t-94.5 104.5q-2 -20 -2 -43q0 -31 3 -92.5t3 -92.5q0 -57 -8 -104l-8 -41h-205l8 41q12 63 62.5 178t64.5 154q-35 -23 -136 -105t-165 -114l-39 -21z" />
<glyph unicode="+" horiz-adv-x="1177" d="M82 532v193h385v360h242v-360h385v-193h-385v-360h-242v360h-385z" />
<glyph unicode="," horiz-adv-x="618" d="M-33 -438l215 534l39 195h291l-39 -195l-323 -534h-183z" />
<glyph unicode="-" horiz-adv-x="614" d="M186 532l37 193h451l-37 -193h-451z" />
<glyph unicode="." horiz-adv-x="618" d="M164 0l57 291h291l-57 -291h-291z" />
<glyph unicode="/" horiz-adv-x="692" d="M-53 -264l809 1841h245l-808 -1841h-246z" />
<glyph unicode="0" d="M184 483q0 119 29 260q70 365 265.5 580t465.5 215q215 0 333 -141.5t118 -395.5q0 -203 -74 -440t-225 -405q-92 -100 -214 -154.5t-247 -54.5q-215 0 -333 141t-118 395zM494 438q0 -131 50 -215t128 -84q84 0 176 99q45 51 77.5 109.5t56.5 133t35 123.5l30 139 q39 205 38 304q0 131 -50 215t-128 84q-84 0 -176 -99q-45 -51 -77.5 -109.5t-56.5 -133t-35 -124t-27 -137.5q-41 -207 -41 -305z" />
<glyph unicode="1" d="M236 0l36 193h361l209 1075l-381 -107l37 193l448 141h234l-254 -1302h286l-36 -193h-940z" />
<glyph unicode="2" d="M82 0l41 209q68 115 184.5 216t231.5 175l224 148q110 74 188.5 163.5t99.5 194.5q4 20 4 41q0 88 -67.5 143.5t-168.5 55.5q-203 0 -442 -105l41 213q195 84 438 84q207 0 349.5 -99.5t142.5 -262.5q0 -74 -30 -144.5t-74 -128t-124 -123t-151.5 -116t-182.5 -119.5 q-268 -166 -378 -352h755l-37 -193h-1044z" />
<glyph unicode="3" d="M166 6l41 215q229 -82 418 -82q88 0 158.5 34t110.5 85t60.5 104.5t20.5 100.5q0 86 -60 129q-129 96 -299 96h-112l39 193h112q96 0 185.5 30.5t155 102t65.5 172.5q0 160 -201 160q-160 0 -395 -74l41 215q164 51 391 51q215 0 336 -89t121 -243q0 -86 -34 -158.5 t-92.5 -119.5t-119.5 -78t-133 -53q156 -29 224.5 -116t68.5 -196q0 -88 -44 -181t-126 -174t-216 -132t-294 -51q-258 0 -422 59z" />
<glyph unicode="4" d="M102 424l39 192l885 869h293l-168 -869h203l-39 -192h-203l-82 -424h-293l82 424h-717zM432 616h426l98 514z" />
<glyph unicode="5" d="M156 -23l41 213q156 -51 252 -51h60q19 0 77.5 6.5t95.5 16.5t92 32.5t90 53.5t67 82t44 116q6 29 6 56q0 63 -26.5 112.5t-77.5 73.5q-135 70 -418 70q-41 0 -99 -2l142 729h913l-37 -193h-671l-68 -346q156 -8 273.5 -38.5t184 -72.5t108.5 -97.5t55.5 -105.5 t13.5 -108q0 -74 -23.5 -148.5t-86 -153.5t-157 -138t-249 -98t-346.5 -39q-166 -1 -256 30z" />
<glyph unicode="6" d="M190 440q0 123 37 303q33 176 98.5 315.5t146.5 227.5t181.5 146.5t202.5 82t213 23.5q178 0 283 -57l-43 -219q-150 84 -277 84q-172 0 -298 -127t-185 -342q150 92 325 92q213 0 325 -104.5t112 -280.5q0 -74 -17.5 -152t-65.5 -167t-121 -158.5t-196 -114.5t-276 -45 q-66 0 -124 13t-117.5 47t-103.5 88.5t-72 142t-28 202.5zM449 414q0 -119 59 -197t164 -78q84 0 148.5 33t100 80t58 108.5t31 108.5t8.5 88q0 109 -52.5 173.5t-125.5 64.5q-94 0 -182.5 -42t-148.5 -132t-60 -207z" />
<glyph unicode="7" d="M272 0q74 195 195 382t299 413q61 76 146 164t142 141l165 153h-893l45 232h1126l-45 -232q-84 -78 -176 -179t-149 -170l-158 -193q-262 -328 -402 -711h-295z" />
<glyph unicode="8" d="M150 311q0 150 112.5 280t323.5 208q-195 125 -195 309q0 121 79 220t205 154.5t269 55.5q172 0 291 -83t119 -222q0 -72 -31 -135.5t-82 -108.5t-102.5 -75.5t-108.5 -53.5q119 -70 189.5 -170t70.5 -225q0 -145 -94 -266t-243.5 -186.5t-317.5 -65.5q-205 0 -345 99 t-140 265zM442 328q0 -98 61.5 -163t162.5 -65q131 0 231 105.5t100 226.5q0 186 -278 301q-123 -57 -200 -176.5t-77 -228.5zM657 1141q0 -41 19.5 -75t56.5 -59.5t73 -43t87 -37.5q86 43 141.5 125t55.5 161q0 74 -49.5 123t-127.5 49q-96 0 -176 -75.5t-80 -167.5z" />
<glyph unicode="9" d="M227 4l43 219q147 -84 277 -84q172 0 298 127t185 342q-150 -92 -325 -92q-213 0 -325 104.5t-112 280.5q0 74 17.5 151.5t65.5 167t121 159t196 114.5t276 45q63 0 122.5 -13.5t119 -47t103.5 -88t70.5 -142.5t26.5 -203q0 -123 -32 -301q-31 -154 -83 -277.5 t-112.5 -204.5t-136.5 -141.5t-143.5 -93t-142 -51t-125 -23.5t-101.5 -5q-179 0 -283 57zM561 928q0 -109 52.5 -173.5t125.5 -64.5q94 0 182.5 42t148.5 132t60 207q0 119 -59 197t-164 78q-84 0 -148.5 -33t-100 -80t-59.5 -108.5t-31 -108.5t-7 -88z" />
<glyph unicode=":" horiz-adv-x="618" d="M164 0l57 291h291l-57 -291h-291zM317 795l58 290h291l-58 -290h-291z" />
<glyph unicode=";" horiz-adv-x="618" d="M-33 -438l215 534l39 195h291l-39 -195l-323 -534h-183zM317 795l58 290h291l-58 -290h-291z" />
<glyph unicode="&#x3c;" horiz-adv-x="1120" d="M82 592v74l958 434v-221l-530 -250l530 -250v-221z" />
<glyph unicode="=" horiz-adv-x="1177" d="M82 340v192h1012v-192h-1012zM82 725v193h1012v-193h-1012z" />
<glyph unicode="&#x3e;" horiz-adv-x="1120" d="M82 158v221l530 250l-530 250v221l958 -434v-74z" />
<glyph unicode="?" d="M354 1217l41 208q225 92 479 93q152 0 276 -32t206 -104.5t82 -177.5q0 -86 -42 -154.5t-112 -114.5t-141.5 -85t-148 -86t-117.5 -96q-53 -66 -74 -168l-6 -35h-291l6 35q18 88 62 156.5t100.5 111.5t120 78t125 63.5t110.5 60t79 80t30 109.5q0 86 -85 126t-214 40 q-224 1 -486 -108zM416 0l57 291h291l-57 -291h-291z" />
<glyph unicode="@" horiz-adv-x="1796" d="M199 365q0 113 26 243q43 225 138.5 392t231.5 267.5t300 148.5t356 48q125 0 223.5 -20.5t174 -63.5t116.5 -115.5t41 -172.5q0 -78 -32 -244l-136 -703h-241l26 138q-170 -137 -319 -138q-121 0 -204 79t-83 239q0 63 14 135q20 113 70.5 202t111 142t134.5 87 t139.5 47.5t130.5 13.5q82 0 146 -23q0 25 -4.5 47.5t-25 60t-54 63.5t-103 46.5t-164.5 20.5q-291 0 -484 -175.5t-261 -521.5q-23 -117 -23 -217q0 -238 128 -358.5t364 -120.5q80 0 211 25l-33 -168q-88 -16 -186 -17q-344 0 -536.5 150t-192.5 463zM1094 532 q0 -100 49 -147t135 -47q94 0 164 43l110 567q-39 14 -82 15q-106 0 -204 -64q-90 -57 -131 -161t-41 -206z" />
<glyph unicode="A" horiz-adv-x="1513" d="M20 0l861 1485h307l307 -1485h-307l-80 389h-606l-226 -389h-256zM618 592h447l-117 569z" />
<glyph unicode="B" horiz-adv-x="1388" d="M164 0l289 1485h397q94 0 144 -2t125 -10.5t130.5 -30t98.5 -58.5q104 -86 104 -219q0 -80 -35 -146.5t-92 -110.5t-120.5 -71.5t-133.5 -43.5q141 -35 230.5 -119t89.5 -209q0 -35 -8.5 -73t-28 -90t-65.5 -104.5t-113 -91.5q-61 -39 -131 -61t-157 -31.5t-144.5 -11.5 t-163.5 -2h-416zM510 203h192h56q14 0 59 3t68.5 10t61.5 21.5t59.5 35t42 53t28.5 75.5q4 25 4 48q0 90 -61 157q-41 41 -101.5 60.5t-105.5 22.5t-127 3h-80zM645 895h103q66 0 101.5 2t88.5 15.5t94 41.5q109 74 109 179q0 63 -43 102q-23 23 -61 33t-66.5 12t-79.5 2 h-170z" />
<glyph unicode="C" horiz-adv-x="1433" d="M190 553q0 125 34 256t110 263t185.5 234.5t276.5 167t367 64.5q242 0 471 -84l-45 -229q-295 111 -465 110q-94 0 -175 -26.5t-135 -63.5t-100 -97.5t-71 -108.5t-47.5 -115.5t-29.5 -100.5l-17 -82q-25 -133 -25 -227q0 -104 32 -179t87 -114t112.5 -55t121.5 -16 q80 0 181 27.5t171 55.5l184 80l-49 -254q-254 -113 -518 -112q-166 0 -293 46t-205 129t-118 191.5t-40 239.5z" />
<glyph unicode="D" horiz-adv-x="1554" d="M164 0l289 1485h387q74 0 110.5 -1t104 -4t107.5 -11.5t96.5 -23.5t96.5 -39t83 -58.5t75 -79.5q121 -160 121 -377q0 -195 -93 -372t-245 -302q-78 -63 -163.5 -106t-154.5 -64.5t-168 -32t-156.5 -12.5t-166.5 -2h-323zM510 203h125q78 0 121 3t110.5 16.5t125 46 t114.5 87.5q92 90 155.5 228.5t63.5 300.5q0 143 -55 248q-23 43 -56.5 72.5t-63.5 45t-79 22.5t-77.5 8t-84.5 1h-188z" />
<glyph unicode="E" horiz-adv-x="1349" d="M164 0l289 1485h1106l-39 -203h-799l-76 -387h637l-39 -203h-637l-96 -489h823l-39 -203h-1130z" />
<glyph unicode="F" horiz-adv-x="1310" d="M164 0l289 1485h1065l-39 -203h-758l-76 -387h602l-39 -203h-602l-135 -692h-307z" />
<glyph unicode="G" horiz-adv-x="1497" d="M193 563q0 86 16 178q20 102 62 205t122 212.5t186.5 191.5t267.5 135t353 53q248 0 500 -86l-45 -225q-100 35 -167 54t-159 36.5t-170 17.5q-100 0 -185 -25.5t-143.5 -62.5t-106.5 -95t-74.5 -107.5t-50.5 -116t-32 -102t-18 -85.5q-23 -123 -23 -213 q0 -109 34 -186.5t93.5 -117.5t123 -57t136.5 -17q94 0 232 32l67 348h-155l41 203h463l-134 -678q-324 -109 -559 -108q-328 0 -501.5 170t-173.5 446z" />
<glyph unicode="H" horiz-adv-x="1597" d="M164 0l289 1485h307l-125 -641h655l125 641h307l-288 -1485h-308l125 641h-655l-125 -641h-307z" />
<glyph unicode="I" horiz-adv-x="634" d="M164 0l289 1485h307l-289 -1485h-307z" />
<glyph unicode="J" horiz-adv-x="1030" d="M18 -6l45 225q205 -70 291 -69q111 0 189 73q35 33 59.5 85t34.5 91t22 111l191 975h307l-178 -920l-20 -94q-7 -35 -23 -93.5t-32.5 -95t-45.5 -87t-60.5 -82t-79.5 -66.5t-103.5 -54.5t-128 -32.5t-158.5 -13q-175 0 -310 47z" />
<glyph unicode="K" horiz-adv-x="1388" d="M164 0l289 1485h307l-119 -606l645 606h311l-714 -672l272 -475q96 -166 291 -188l-60 -203q-154 16 -275.5 90t-192.5 196l-230 400l-115 -111l-102 -522h-307z" />
<glyph unicode="L" horiz-adv-x="1241" d="M164 0l289 1485h307l-250 -1282h750l-39 -203h-1057z" />
<glyph unicode="M" horiz-adv-x="1875" d="M164 0l289 1485h462l132 -975l485 975h469l-289 -1485h-307l229 1180l-534 -1076h-307l-144 1076l-229 -1180h-256z" />
<glyph unicode="N" horiz-adv-x="1597" d="M164 0l289 1485h307l493 -1090l213 1090h256l-288 -1485h-308l-495 1090l-211 -1090h-256z" />
<glyph unicode="O" horiz-adv-x="1751" d="M193 559q0 139 38.5 276.5t119.5 264.5t196 224t277.5 155.5t351.5 58.5q168 0 299 -47t211.5 -130t121.5 -193.5t41 -241.5q0 -135 -37.5 -271.5t-118.5 -263.5t-194 -226t-277.5 -158.5t-355.5 -59.5q-332 0 -502.5 169t-170.5 443zM524 522q0 -106 34 -183t92.5 -116 t121 -56t133.5 -17q197 0 340 110q104 82 159.5 203t88.5 280q25 127 25 218q0 109 -34 185.5t-92.5 115t-121 56t-133.5 17.5q-197 0 -340 -110q-104 -82 -160.5 -203t-85.5 -279q-27 -129 -27 -221z" />
<glyph unicode="P" horiz-adv-x="1431" d="M164 0l289 1485h448q109 0 167 -2t145 -11.5t149.5 -34t110.5 -65.5q109 -92 108 -239q0 -119 -65.5 -239t-182.5 -198q-68 -47 -139.5 -74.5t-160.5 -39t-146.5 -13.5t-163.5 -2h-141l-111 -567h-307zM621 770h221q70 0 107.5 2t94 19.5t99.5 52.5q53 43 85 105.5t37 94 t5 54.5q0 78 -51 123q-31 29 -81.5 43t-88 16t-109.5 2h-219z" />
<glyph unicode="Q" horiz-adv-x="1751" d="M193 559q0 139 38.5 276.5t119.5 264.5t196 224t277.5 155.5t351.5 58.5q168 0 299 -47t211.5 -130t121.5 -193.5t41 -241.5q0 -262 -137 -503t-369 -364q90 -188 304 -188l-39 -203q-176 0 -309.5 89t-176.5 220q-123 -31 -256 -30q-332 0 -502.5 169t-170.5 443z M524 522q0 -106 34 -183t92.5 -116t121 -56t133.5 -17q82 0 158 20q-70 131 -234 176l93 199q119 -35 213 -106.5t137 -155.5q72 63 123 161.5t75.5 199.5t36 180t11.5 137q0 109 -34 185.5t-92.5 115t-121 56t-133.5 17.5q-197 0 -340 -110q-104 -82 -160.5 -203 t-85.5 -279q-27 -129 -27 -221z" />
<glyph unicode="R" horiz-adv-x="1427" d="M164 0l289 1485h381q102 0 157.5 -2t136 -12.5t139 -36t103.5 -66.5q96 -90 96 -238q0 -78 -26.5 -156.5t-78.5 -155.5t-145.5 -136t-214.5 -86l209 -320q84 -131 238 -153l-70 -203q-127 18 -231.5 80.5t-171.5 161.5l-264 405h-105h-24l-111 -567h-307zM621 770h104 q72 0 112 2t97 18.5t100 49.5q59 45 91 117.5t32 146.5q0 49 -18.5 85t-44 53.5t-66.5 26.5t-67.5 11t-65.5 2h-11h-10h-153z" />
<glyph unicode="S" horiz-adv-x="1370" d="M92 53l53 269q264 -172 545 -172q104 0 179 23.5t113 62t54.5 77.5t16.5 80q0 74 -65.5 125t-205.5 100l-129 46q-207 72 -289.5 146.5t-82.5 176.5q0 35 8 78q31 156 140.5 265.5t255.5 158.5t314 49q219 0 416 -82l-45 -233q-92 39 -140 56t-132 36.5t-160 19.5 q-94 0 -161.5 -21.5t-102.5 -57t-50.5 -71.5t-15.5 -75q0 -63 58.5 -98t224.5 -92l131 -46q186 -66 270 -156.5t84 -213.5q0 -39 -8 -84q-45 -229 -261 -351t-536 -122q-313 0 -479 106z" />
<glyph unicode="T" horiz-adv-x="1349" d="M270 1282l39 203h1311l-39 -203h-502l-250 -1282h-307l250 1282h-502z" />
<glyph unicode="U" horiz-adv-x="1597" d="M244 330q0 78 30 241l179 914h307l-187 -963q-20 -102 -20 -149q0 -63 24.5 -109.5t67.5 -70t88 -33.5t94 -10q154 0 258 79q47 37 78 91.5t41 92.5t25 109l186 963h307l-178 -914q-14 -74 -22.5 -111.5t-28.5 -101t-45 -105.5t-67 -90t-97 -85q-193 -131 -496 -131 q-82 0 -155.5 10t-147 36.5t-126 68.5t-84 111t-31.5 157z" />
<glyph unicode="V" horiz-adv-x="1490" d="M309 1485h307l230 -1155l657 1155h256l-848 -1485h-307z" />
<glyph unicode="W" horiz-adv-x="2156" d="M309 1485h307l76 -1180l535 1180h307l125 -1182l512 1182h256l-645 -1485h-398l-108 1028l-469 -1028h-404z" />
<glyph unicode="X" horiz-adv-x="1490" d="M-2 0l729 737l-424 748h344l299 -529l522 529h304l-715 -721l432 -764h-344l-307 543l-539 -543h-301z" />
<glyph unicode="Y" horiz-adv-x="1468" d="M309 1485h307l310 -688l557 688h256l-723 -891l-115 -594h-307l115 594z" />
<glyph unicode="Z" horiz-adv-x="1394" d="M82 0l51 260l1127 1022h-891l39 203h1196l-52 -260l-1126 -1022h928l-39 -203h-1233z" />
<glyph unicode="[" horiz-adv-x="772" d="M31 -264l358 1841h672l-39 -193h-379l-285 -1456h381l-37 -192h-671z" />
<glyph unicode="\" horiz-adv-x="692" d="M305 1577h246l92 -1841h-246z" />
<glyph unicode="]" horiz-adv-x="772" d="M-31 -264l37 192h379l285 1456h-381l39 193h671l-358 -1841h-672z" />
<glyph unicode="^" horiz-adv-x="1054" d="M37 741l360 740h258l361 -740h-260l-230 473l-229 -473h-260z" />
<glyph unicode="_" horiz-adv-x="1024" d="M-37 -193l37 193h1024l-37 -193h-1024z" />
<glyph unicode="`" horiz-adv-x="600" d="M82 1481v129h291v-129l108 -355h-182z" />
<glyph unicode="a" horiz-adv-x="1187" d="M133 213q0 39 9.5 78t31 86t68.5 94t112 82q180 94 535 100l14 70q10 61 10 92q0 55 -35.5 85t-129.5 30q-156 0 -392 -101l41 213q180 80 422 80q115 0 195 -19.5t122 -55t59 -78.5t17 -103q0 -59 -24 -186l-133 -680h-293l20 109q-197 -145 -370 -146q-127 0 -203 68.5 t-76 181.5zM430 260q0 -49 34 -76.5t99 -27.5q111 0 246 90l49 252q-205 -2 -307 -58q-121 -71 -121 -180z" />
<glyph unicode="b" horiz-adv-x="1230" d="M162 39l299 1538h291l-129 -657q170 203 389 202q53 0 100 -14t92 -48t70.5 -101.5t25.5 -161.5q0 -147 -57 -320.5t-170 -300.5q-96 -104 -226 -158.5t-323 -54.5q-223 0 -362 76zM477 168q53 -12 103 -12q86 0 152.5 33.5t108.5 97t68.5 136.5t44.5 171q23 111 23 180 q0 84 -29.5 120t-89.5 36q-72 0 -146.5 -48t-119.5 -124z" />
<glyph unicode="c" horiz-adv-x="1140" d="M176 399q0 82 19.5 171t73 190.5t133 179.5t215 130t307.5 52q170 0 342 -43l-39 -202q-236 53 -340 53q-94 0 -168 -33t-120 -90t-73.5 -121.5t-42.5 -142.5q-14 -68 -14 -125q0 -262 262 -262q115 0 369 65l-41 -209q-190 -49 -367 -49q-258 0 -387 117.5t-129 318.5z " />
<glyph unicode="d" horiz-adv-x="1230" d="M152 334q0 61 10 128.5t33.5 145.5t60.5 149.5t95.5 139.5t131 117t176 78.5t226.5 29.5q70 0 121 -4l90 459h290l-307 -1577h-291l29 147q-156 -184 -350 -184q-61 0 -114.5 19.5t-99.5 61.5t-73.5 116t-27.5 174zM477 358q0 -203 141 -202q68 0 132.5 47t101.5 121 l115 596q-51 10 -103 10q-84 0 -148.5 -31t-107.5 -89t-69.5 -127t-42.5 -159q-19 -94 -19 -166z" />
<glyph unicode="e" horiz-adv-x="1196" d="M176 391q0 72 17 152q53 285 248.5 437.5t457.5 152.5q188 0 292.5 -78t104.5 -195q0 -113 -95 -212t-265 -150q-158 -47 -438 -47h-29q-2 -23 -2 -43q0 -252 260 -252q152 0 418 88l-43 -219q-182 -61 -397 -62q-150 0 -255.5 35t-164 96.5t-84 134t-25.5 162.5z M508 643h27q469 0 469 193q0 43 -33 73.5t-109 30.5q-37 0 -78 -10t-95 -38t-102 -92.5t-79 -156.5z" />
<glyph unicode="f" horiz-adv-x="864" d="M-137 -403l37 194q102 -31 168 -31q43 0 73.5 13.5t51 33t37 61.5t25.5 83l24 112l163 840h-192l33 172h192q23 104 44.5 176t61.5 145.5t92 118t134 72t188 27.5q98 0 197 -29l-37 -194q-100 31 -156 30q-41 0 -71.5 -10t-53 -35.5t-37 -49t-27.5 -69t-19 -73.5l-19 -88 q-2 -12 -4 -21h291l-33 -172h-291l-135 -694l-23 -118q-9 -44 -27 -107.5t-33 -101.5t-39.5 -87t-53.5 -78.5t-69 -61.5t-86 -48.5t-106.5 -27.5t-131.5 -11q-76 0 -168 29z" />
<glyph unicode="g" horiz-adv-x="1163" d="M16 -356l43 221q305 -68 611 -68q80 0 128 12.5t50 55.5q0 29 -11.5 38t-39.5 17q-6 2 -11 2l-276 55q-53 10 -89 21.5t-75 32t-59.5 55.5t-20.5 82q0 98 86 178q-72 45 -111.5 118t-39.5 161q0 80 36.5 164.5t105.5 160.5t184.5 124t258.5 48q135 0 232 -45 q178 141 354 142l-39 -193q-111 0 -200 -37q74 -90 73 -213q0 -90 -41 -178t-114.5 -159.5t-186 -115.5t-243.5 -44q-49 0 -97 6q-8 -14 -8 -29q0 -53 123 -74l276 -57q233 -41 234 -191q0 -45 -12.5 -84.5t-53.5 -87t-106.5 -80t-182 -55t-272.5 -22.5h-14h-16 q-306 0 -476 39zM516 600q0 -127 143 -127q49 0 87 16.5t59.5 36t37 55t21.5 59.5t13 60q14 68 14 103q0 127 -143 127q-49 0 -87 -16.5t-58.5 -37t-37 -56.5t-22.5 -58.5t-15 -61.5q-12 -65 -12 -100z" />
<glyph unicode="h" horiz-adv-x="1275" d="M154 0l307 1577h291l-121 -614q188 160 391 159q145 0 202.5 -66.5t57.5 -174.5q0 -68 -27 -209l-131 -672h-290l139 719q14 70 14 102q0 109 -119 109q-137 0 -266 -117l-158 -813h-290z" />
<glyph unicode="i" horiz-adv-x="598" d="M154 0l211 1085h290l-211 -1085h-290zM397 1257l45 228h291l-45 -228h-291z" />
<glyph unicode="j" horiz-adv-x="598" d="M-231 -403l38 204q104 -41 144 -41q45 0 77.5 14.5t53 35t36 59.5t22.5 67.5t18 81.5l207 1067h290l-194 -1003l-20 -92q-7 -33 -20 -85t-26.5 -82t-35 -71t-46 -63.5t-60.5 -49t-79 -40t-98.5 -22.5t-120.5 -9q-110 0 -186 29zM397 1257l45 228h291l-45 -228h-291z" />
<glyph unicode="k" horiz-adv-x="1114" d="M154 0l307 1577h291l-172 -879l372 387h283l-444 -464l141 -295q35 -72 97.5 -117t144.5 -53l-56 -193q-141 14 -250.5 85t-167.5 188l-94 194l-98 -104l-64 -326h-290z" />
<glyph unicode="l" horiz-adv-x="598" d="M154 0l307 1577h291l-308 -1577h-290z" />
<glyph unicode="m" horiz-adv-x="1894" d="M154 0l211 1085h290l-18 -98q162 135 344 135q96 0 169 -41t95 -131q178 172 383 172q51 0 96 -11t87 -37.5t66 -77t24 -122.5q0 -63 -29 -206l-129 -668h-291l139 717q12 66 13 100q0 113 -123 113q-119 0 -230 -105q-4 -49 -26 -157l-129 -668h-291l139 717 q12 66 12 100q0 113 -122 113q-117 0 -228 -101l-162 -829h-290z" />
<glyph unicode="n" horiz-adv-x="1275" d="M154 0l211 1085h290l-24 -122q188 160 391 159q145 0 202.5 -66.5t57.5 -174.5q0 -68 -27 -209l-131 -672h-290l139 719q14 70 14 102q0 109 -119 109q-137 0 -266 -117l-158 -813h-290z" />
<glyph unicode="o" horiz-adv-x="1280" d="M164 408q0 129 47 254.5t133 229t220 167t296 63.5q231 0 350 -124t119 -320q0 -129 -47 -255t-133 -229.5t-220 -167t-294 -63.5q-233 0 -352 124t-119 321zM477 373q0 -115 57.5 -166t137.5 -51q51 0 96 17t75.5 43t56.5 66t40 70.5t26.5 73.5t16.5 61l10 45q0 8 2 11 q20 111 21 170q0 115 -57.5 166t-137.5 51q-51 0 -96 -17.5t-76 -43t-56.5 -65.5t-39.5 -71t-26.5 -74t-16.5 -61l-10 -45v-10q-23 -111 -23 -170z" />
<glyph unicode="p" horiz-adv-x="1230" d="M76 -395l289 1480h290l-32 -165q170 203 389 202q53 0 100 -14t92 -48t70.5 -101.5t25.5 -161.5q0 -147 -57 -320.5t-170 -300.5q-96 -104 -226 -158.5t-321 -54.5q-47 0 -88 4l-71 -362h-291zM477 168q53 -12 103 -12q86 0 152.5 33.5t108.5 97t68.5 136.5t44.5 171 q23 111 23 180q0 84 -29.5 120t-89.5 36q-72 0 -146.5 -48t-119.5 -124z" />
<glyph unicode="q" horiz-adv-x="1230" d="M152 334q0 61 10 128.5t33.5 145.5t60.5 149.5t95.5 139.5t131 117t176 78.5t226.5 29.5q262 0 397 -75l-281 -1442h-290l106 542q-156 -184 -350 -184q-61 0 -114.5 19.5t-99.5 61.5t-73.5 116t-27.5 174zM477 358q0 -203 141 -202q68 0 132.5 47t101.5 121l115 596 q-51 10 -103 10q-84 0 -148.5 -31t-107.5 -89t-69.5 -127t-42.5 -159q-19 -94 -19 -166z" />
<glyph unicode="r" horiz-adv-x="931" d="M154 0l211 1085h290l-41 -211q76 115 180.5 181.5t227.5 66.5q63 0 92 -6l-47 -239q-61 14 -113 14q-117 0 -223 -67.5t-160 -174.5l-127 -649h-290z" />
<glyph unicode="s" horiz-adv-x="1103" d="M125 16l43 222q166 -82 414 -82q102 0 153 47t51 102q0 29 -19 51.5t-38.5 31.5t-52.5 22l-223 75q-84 31 -134.5 94.5t-50.5 149.5q0 115 80 206t207 139t274 48q137 0 293 -41l-41 -207q-211 55 -303 56q-111 0 -159 -35t-48 -78q0 -23 19.5 -42t37 -26.5t52.5 -19.5 l223 -78q190 -68 191 -241q0 -197 -171 -322t-423 -125q-271 0 -375 53z" />
<glyph unicode="t" horiz-adv-x="876" d="M250 903l33 172h192l49 256h293l-49 -256h283l-33 -172h-283l-108 -551q-12 -70 -13 -100q0 -47 26 -71.5t91 -24.5q41 0 143 14l-36 -193q-125 -14 -211 -14q-176 0 -245 53.5t-69 161.5q0 63 29 211l100 514h-192z" />
<glyph unicode="u" horiz-adv-x="1275" d="M207 211q0 66 29 207l129 667h290l-139 -716q-14 -70 -14 -103q0 -111 121 -110q135 0 264 116l157 813h291l-211 -1085h-290l24 123q-186 -160 -383 -160q-53 0 -97 11.5t-84 38t-63.5 76.5t-23.5 122z" />
<glyph unicode="v" horiz-adv-x="1148" d="M231 1085h291l158 -813l301 433q51 76 51 165q0 90 -51 174l207 82q88 -147 88 -260q0 -88 -51 -161l-492 -705h-291z" />
<glyph unicode="w" horiz-adv-x="1605" d="M231 1085h263l86 -852l284 472q41 70 41 147q0 92 -53 192l238 82q66 -129 65 -241q0 -96 -49 -180l-72 -119l123 -416l318 535q43 72 43 155q0 88 -50 187l240 77q59 -125 59 -235q0 -98 -49 -184l-422 -705h-354l-84 291l-174 -291h-342z" />
<glyph unicode="x" horiz-adv-x="1148" d="M0 0l512 545l-184 241q-88 117 -88 283v16h290q-2 -111 66 -194l129 -172l346 366h283l-502 -532l190 -250q88 -117 88 -285v-18h-290q0 115 -66 201l-135 178l-356 -379h-283z" />
<glyph unicode="y" horiz-adv-x="1148" d="M88 -377l39 201q133 -27 223 -27q74 0 131.5 14.5t88 31t55 50t32 49t19.5 52.5l14 37q-68 -49 -143 -49q-106 0 -182 86q-35 39 -55.5 98t-25.5 98t-10 121l-43 700h291l49 -708q10 -240 45 -240q80 0 142 92l291 856h292l-362 -1065l-22 -61q-7 -20 -26.5 -61 t-35.5 -63.5t-47 -58.5t-64.5 -56.5t-83 -45t-106.5 -38t-134 -22.5t-165 -9q-115 0 -207 18z" />
<glyph unicode="z" horiz-adv-x="1140" d="M86 0l45 227l787 666h-629l37 192h942l-45 -227l-799 -676q41 -8 171 -47t202 -39q121 0 264 94l102 -188q-154 -98 -354 -98q-106 0 -274 48t-254 48h-195z" />
<glyph unicode="{" horiz-adv-x="831" d="M129 561l39 193q137 0 256 100l74 379q31 156 188.5 250t345.5 94h86l-39 -193h-86q-90 0 -164.5 -39.5t-89.5 -111.5l-80 -412q-6 -29 -50 -69.5t-73.5 -60t-56.5 -34.5q117 -86 117 -153v-12l-80 -412q-4 -12 -4 -25q0 -59 58.5 -93t140.5 -34h86l-37 -192h-86 q-170 0 -288 77.5t-118 211.5q0 27 6 55l74 381q-84 100 -219 100z" />
<glyph unicode="|" horiz-adv-x="569" d="M113 -264l358 1841h242l-359 -1841h-241z" />
<glyph unicode="}" horiz-adv-x="831" d="M-31 -264l37 192h86q92 0 167 40t89 112l80 412q12 70 178 165q-117 86 -117 154q0 4 3 10l79 412q2 12 2 24q0 59 -57 93t-141 34h-86l39 193h86q170 0 287.5 -78t117.5 -211q0 -27 -6 -55l-74 -379q82 -100 219 -100l-38 -193q-133 0 -256 -100l-74 -381 q-31 -156 -188.5 -250t-346.5 -94h-86z" />
<glyph unicode="~" horiz-adv-x="1331" d="M82 436q0 174 109.5 298t261.5 124q66 0 124 -27.5t99 -66.5t75.5 -78t68.5 -66.5t65 -27.5q27 0 43 19.5t22 60.5t7 69.5t1 79.5h291q0 -174 -109.5 -298t-260.5 -124q-55 0 -106.5 19.5t-86.5 49.5t-69.5 64.5t-60.5 64.5t-54.5 49.5t-55.5 19.5t-43 -19.5t-22 -60.5 t-7 -70t-1 -80h-291z" />
<glyph unicode="&#xa8;" horiz-adv-x="1454" d="M565 1257l45 228h293l-45 -228h-293zM1083 1257l45 228h293l-45 -228h-293z" />
<glyph unicode="&#xaa;" horiz-adv-x="1187" d="M133 213q0 39 9.5 78t31 86t68.5 94t112 82q180 94 535 100l14 70q10 61 10 92q0 55 -35.5 85t-129.5 30q-156 0 -392 -101l41 213q180 80 422 80q115 0 195 -19.5t122 -55t59 -78.5t17 -103q0 -59 -24 -186l-133 -680h-293l20 109q-197 -145 -370 -146q-127 0 -203 68.5 t-76 181.5zM430 260q0 -49 34 -76.5t99 -27.5q111 0 246 90l49 252q-205 -2 -307 -58q-121 -71 -121 -180z" />
<glyph unicode="&#xad;" horiz-adv-x="614" d="M186 532l37 193h451l-37 -193h-451z" />
<glyph unicode="&#xaf;" horiz-adv-x="1454" d="M532 1257l39 193h877l-39 -193h-877z" />
<glyph unicode="&#xb2;" d="M82 0l41 209q68 115 184.5 216t231.5 175l224 148q110 74 188.5 163.5t99.5 194.5q4 20 4 41q0 88 -67.5 143.5t-168.5 55.5q-203 0 -442 -105l41 213q195 84 438 84q207 0 349.5 -99.5t142.5 -262.5q0 -74 -30 -144.5t-74 -128t-124 -123t-151.5 -116t-182.5 -119.5 q-268 -166 -378 -352h755l-37 -193h-1044z" />
<glyph unicode="&#xb3;" d="M166 6l41 215q229 -82 418 -82q88 0 158.5 34t110.5 85t60.5 104.5t20.5 100.5q0 86 -60 129q-129 96 -299 96h-112l39 193h112q96 0 185.5 30.5t155 102t65.5 172.5q0 160 -201 160q-160 0 -395 -74l41 215q164 51 391 51q215 0 336 -89t121 -243q0 -86 -34 -158.5 t-92.5 -119.5t-119.5 -78t-133 -53q156 -29 224.5 -116t68.5 -196q0 -88 -44 -181t-126 -174t-216 -132t-294 -51q-258 0 -422 59z" />
<glyph unicode="&#xb4;" horiz-adv-x="747" d="M383 1257l297 324h291l-412 -324h-176z" />
<glyph unicode="&#xb9;" d="M236 0l36 193h361l209 1075l-381 -107l37 193l448 141h234l-254 -1302h286l-36 -193h-940z" />
<glyph unicode="&#xba;" horiz-adv-x="1280" d="M164 408q0 129 47 254.5t133 229t220 167t296 63.5q231 0 350 -124t119 -320q0 -129 -47 -255t-133 -229.5t-220 -167t-294 -63.5q-233 0 -352 124t-119 321zM477 373q0 -115 57.5 -166t137.5 -51q51 0 96 17t75.5 43t56.5 66t40 70.5t26.5 73.5t16.5 61l10 45q0 8 2 11 q20 111 21 170q0 115 -57.5 166t-137.5 51q-51 0 -96 -17.5t-76 -43t-56.5 -65.5t-39.5 -71t-26.5 -74t-16.5 -61l-10 -45v-10q-23 -111 -23 -170z" />
<glyph unicode="&#xc0;" horiz-adv-x="1513" d="M20 0l861 1485h307l307 -1485h-307l-80 389h-606l-226 -389h-256zM618 592h447l-117 569zM754 1980h290l170 -323h-176z" />
<glyph unicode="&#xc1;" horiz-adv-x="1513" d="M20 0l861 1485h307l307 -1485h-307l-80 389h-606l-226 -389h-256zM618 592h447l-117 569zM864 1657l297 323h291l-412 -323h-176z" />
<glyph unicode="&#xc2;" horiz-adv-x="1513" d="M20 0l861 1485h307l307 -1485h-307l-80 389h-606l-226 -389h-256zM608 1657l338 264h291l236 -264h-234l-168 151l-229 -151h-234zM618 592h447l-117 569z" />
<glyph unicode="&#xc3;" horiz-adv-x="1513" d="M531 1698q0 174 109.5 298t261.5 124q66 0 124 -27.5t99 -66.5t75.5 -78t68.5 -66.5t65 -27.5q27 0 43 19.5t22 60.5t7 69.5t1 79.5h291q0 -174 -109.5 -298t-260.5 -124q-55 0 -106.5 19.5t-86.5 49.5t-69.5 64.5t-60.5 64.5t-54.5 49.5t-55.5 19.5t-43 -19.5t-22 -60.5 t-7 -70t-1 -80h-291zM20 0l861 1485h307l307 -1485h-307l-80 389h-606l-226 -389h-256zM618 592h447l-117 569z" />
<glyph unicode="&#xc4;" horiz-adv-x="1513" d="M20 0l861 1485h307l307 -1485h-307l-80 389h-606l-226 -389h-256zM618 592h447l-117 569zM635 1657l45 227h293l-45 -227h-293zM1153 1657l45 227h293l-45 -227h-293z" />
<glyph unicode="&#xc5;" horiz-adv-x="1513" d="M20 0l861 1485h307l307 -1485h-307l-80 389h-606l-226 -389h-256zM618 592h447l-117 569zM745 1907q0 152 128 264.5t290 112.5q127 0 210 -74t83 -189q0 -152 -129 -264t-289 -112q-127 0 -210 73.5t-83 188.5zM924 1931q0 -61 40 -101t103 -40q80 0 145.5 62.5 t65.5 144.5q0 61 -40 101t-103 40q-80 0 -145.5 -62.5t-65.5 -144.5z" />
<glyph unicode="&#xc8;" horiz-adv-x="1349" d="M164 0l289 1485h1106l-39 -203h-799l-76 -387h637l-39 -203h-637l-96 -489h823l-39 -203h-1130zM754 1980h290l170 -323h-176z" />
<glyph unicode="&#xc9;" horiz-adv-x="1349" d="M164 0l289 1485h1106l-39 -203h-799l-76 -387h637l-39 -203h-637l-96 -489h823l-39 -203h-1130zM862 1657l297 323h291l-412 -323h-176z" />
<glyph unicode="&#xca;" horiz-adv-x="1349" d="M164 0l289 1485h1106l-39 -203h-799l-76 -387h637l-39 -203h-637l-96 -489h823l-39 -203h-1130zM606 1657l338 264h291l235 -264h-233l-168 151l-229 -151h-234z" />
<glyph unicode="&#xcb;" horiz-adv-x="1349" d="M164 0l289 1485h1106l-39 -203h-799l-76 -387h637l-39 -203h-637l-96 -489h823l-39 -203h-1130zM633 1657l45 227h293l-45 -227h-293zM1151 1657l45 227h293l-45 -227h-293z" />
<glyph unicode="&#xcc;" horiz-adv-x="634" d="M164 0l289 1485h307l-289 -1485h-307zM354 1980h291l170 -323h-176z" />
<glyph unicode="&#xcd;" horiz-adv-x="634" d="M164 0l289 1485h307l-289 -1485h-307zM463 1657l297 323h291l-412 -323h-176z" />
<glyph unicode="&#xce;" horiz-adv-x="634" d="M164 0l289 1485h307l-289 -1485h-307zM207 1657l338 264h291l235 -264h-233l-168 151l-230 -151h-233z" />
<glyph unicode="&#xcf;" horiz-adv-x="634" d="M164 0l289 1485h307l-289 -1485h-307zM233 1657l46 227h292l-45 -227h-293zM752 1657l45 227h293l-46 -227h-292z" />
<glyph unicode="&#xd0;" horiz-adv-x="1554" d="M141 641l39 203h148l125 641h387q74 0 110.5 -1t104 -4t107.5 -11.5t96.5 -23.5t96.5 -39t83 -58.5t75 -79.5q121 -160 121 -377q0 -195 -93 -372t-245 -302q-78 -63 -163.5 -106t-154.5 -64.5t-168 -32t-156.5 -12.5t-166.5 -2h-323l125 641h-148zM510 203h125 q78 0 121 3t110.5 16.5t125 46t114.5 87.5q92 90 155.5 228.5t63.5 300.5q0 143 -55 248q-23 43 -56.5 72.5t-63.5 45t-79 22.5t-77.5 8t-84.5 1h-188l-86 -438h313l-39 -203h-313z" />
<glyph unicode="&#xd1;" horiz-adv-x="1597" d="M584 1698q0 174 109.5 298t261.5 124q66 0 124 -27.5t99 -66.5t75.5 -78t68.5 -66.5t65 -27.5q27 0 43 19.5t22 60.5t7 69.5t1 79.5h291q0 -174 -109.5 -298t-260.5 -124q-55 0 -106.5 19.5t-86.5 49.5t-69.5 64.5t-60.5 64.5t-54.5 49.5t-55.5 19.5t-43 -19.5t-22 -60.5 t-7 -70t-1 -80h-291zM164 0l289 1485h307l493 -1090l213 1090h256l-288 -1485h-308l-495 1090l-211 -1090h-256z" />
<glyph unicode="&#xd2;" horiz-adv-x="1751" d="M193 559q0 139 38.5 276.5t119.5 264.5t196 224t277.5 155.5t351.5 58.5q168 0 299 -47t211.5 -130t121.5 -193.5t41 -241.5q0 -135 -37.5 -271.5t-118.5 -263.5t-194 -226t-277.5 -158.5t-355.5 -59.5q-332 0 -502.5 169t-170.5 443zM524 522q0 -106 34 -183t92.5 -116 t121 -56t133.5 -17q197 0 340 110q104 82 159.5 203t88.5 280q25 127 25 218q0 109 -34 185.5t-92.5 115t-121 56t-133.5 17.5q-197 0 -340 -110q-104 -82 -160.5 -203t-85.5 -279q-27 -129 -27 -221zM911 1980h291l170 -323h-176z" />
<glyph unicode="&#xd3;" horiz-adv-x="1751" d="M193 559q0 139 38.5 276.5t119.5 264.5t196 224t277.5 155.5t351.5 58.5q168 0 299 -47t211.5 -130t121.5 -193.5t41 -241.5q0 -135 -37.5 -271.5t-118.5 -263.5t-194 -226t-277.5 -158.5t-355.5 -59.5q-332 0 -502.5 169t-170.5 443zM524 522q0 -106 34 -183t92.5 -116 t121 -56t133.5 -17q197 0 340 110q104 82 159.5 203t88.5 280q25 127 25 218q0 109 -34 185.5t-92.5 115t-121 56t-133.5 17.5q-197 0 -340 -110q-104 -82 -160.5 -203t-85.5 -279q-27 -129 -27 -221zM1022 1657l297 323h291l-412 -323h-176z" />
<glyph unicode="&#xd4;" horiz-adv-x="1751" d="M193 559q0 139 38.5 276.5t119.5 264.5t196 224t277.5 155.5t351.5 58.5q168 0 299 -47t211.5 -130t121.5 -193.5t41 -241.5q0 -135 -37.5 -271.5t-118.5 -263.5t-194 -226t-277.5 -158.5t-355.5 -59.5q-332 0 -502.5 169t-170.5 443zM524 522q0 -106 34 -183t92.5 -116 t121 -56t133.5 -17q197 0 340 110q104 82 159.5 203t88.5 280q25 127 25 218q0 109 -34 185.5t-92.5 115t-121 56t-133.5 17.5q-197 0 -340 -110q-104 -82 -160.5 -203t-85.5 -279q-27 -129 -27 -221zM766 1657l338 264h291l235 -264h-233l-168 151l-230 -151h-233z" />
<glyph unicode="&#xd5;" horiz-adv-x="1751" d="M662 1698q0 174 109.5 298t261.5 124q66 0 124 -27.5t99 -66.5t75.5 -78t68.5 -66.5t65 -27.5q27 0 43 19.5t22 60.5t7 69.5t1 79.5h291q0 -174 -109.5 -298t-260.5 -124q-55 0 -106.5 19.5t-86.5 49.5t-69.5 64.5t-60.5 64.5t-54.5 49.5t-55.5 19.5t-43 -19.5t-22 -60.5 t-7 -70t-1 -80h-291zM193 559q0 139 38.5 276.5t119.5 264.5t196 224t277.5 155.5t351.5 58.5q168 0 299 -47t211.5 -130t121.5 -193.5t41 -241.5q0 -135 -37.5 -271.5t-118.5 -263.5t-194 -226t-277.5 -158.5t-355.5 -59.5q-332 0 -502.5 169t-170.5 443zM524 522 q0 -106 34 -183t92.5 -116t121 -56t133.5 -17q197 0 340 110q104 82 159.5 203t88.5 280q25 127 25 218q0 109 -34 185.5t-92.5 115t-121 56t-133.5 17.5q-197 0 -340 -110q-104 -82 -160.5 -203t-85.5 -279q-27 -129 -27 -221z" />
<glyph unicode="&#xd6;" horiz-adv-x="1751" d="M193 559q0 139 38.5 276.5t119.5 264.5t196 224t277.5 155.5t351.5 58.5q168 0 299 -47t211.5 -130t121.5 -193.5t41 -241.5q0 -135 -37.5 -271.5t-118.5 -263.5t-194 -226t-277.5 -158.5t-355.5 -59.5q-332 0 -502.5 169t-170.5 443zM524 522q0 -106 34 -183t92.5 -116 t121 -56t133.5 -17q197 0 340 110q104 82 159.5 203t88.5 280q25 127 25 218q0 109 -34 185.5t-92.5 115t-121 56t-133.5 17.5q-197 0 -340 -110q-104 -82 -160.5 -203t-85.5 -279q-27 -129 -27 -221zM793 1657l45 227h292l-45 -227h-292zM1311 1657l45 227h293l-45 -227 h-293z" />
<glyph unicode="&#xd9;" horiz-adv-x="1597" d="M244 330q0 78 30 241l179 914h307l-187 -963q-20 -102 -20 -149q0 -63 24.5 -109.5t67.5 -70t88 -33.5t94 -10q154 0 258 79q47 37 78 91.5t41 92.5t25 109l186 963h307l-178 -914q-14 -74 -22.5 -111.5t-28.5 -101t-45 -105.5t-67 -90t-97 -85q-193 -131 -496 -131 q-82 0 -155.5 10t-147 36.5t-126 68.5t-84 111t-31.5 157zM836 1980h290l170 -323h-176z" />
<glyph unicode="&#xda;" horiz-adv-x="1597" d="M244 330q0 78 30 241l179 914h307l-187 -963q-20 -102 -20 -149q0 -63 24.5 -109.5t67.5 -70t88 -33.5t94 -10q154 0 258 79q47 37 78 91.5t41 92.5t25 109l186 963h307l-178 -914q-14 -74 -22.5 -111.5t-28.5 -101t-45 -105.5t-67 -90t-97 -85q-193 -131 -496 -131 q-82 0 -155.5 10t-147 36.5t-126 68.5t-84 111t-31.5 157zM944 1657l297 323h291l-412 -323h-176z" />
<glyph unicode="&#xdb;" horiz-adv-x="1597" d="M244 330q0 78 30 241l179 914h307l-187 -963q-20 -102 -20 -149q0 -63 24.5 -109.5t67.5 -70t88 -33.5t94 -10q154 0 258 79q47 37 78 91.5t41 92.5t25 109l186 963h307l-178 -914q-14 -74 -22.5 -111.5t-28.5 -101t-45 -105.5t-67 -90t-97 -85q-193 -131 -496 -131 q-82 0 -155.5 10t-147 36.5t-126 68.5t-84 111t-31.5 157zM688 1657l338 264h291l235 -264h-233l-168 151l-229 -151h-234z" />
<glyph unicode="&#xdc;" horiz-adv-x="1597" d="M244 330q0 78 30 241l179 914h307l-187 -963q-20 -102 -20 -149q0 -63 24.5 -109.5t67.5 -70t88 -33.5t94 -10q154 0 258 79q47 37 78 91.5t41 92.5t25 109l186 963h307l-178 -914q-14 -74 -22.5 -111.5t-28.5 -101t-45 -105.5t-67 -90t-97 -85q-193 -131 -496 -131 q-82 0 -155.5 10t-147 36.5t-126 68.5t-84 111t-31.5 157zM715 1657l45 227h293l-45 -227h-293zM1233 1657l45 227h293l-45 -227h-293z" />
<glyph unicode="&#xdd;" horiz-adv-x="1468" d="M309 1485h307l310 -688l557 688h256l-723 -891l-115 -594h-307l115 594zM881 1657l297 323h290l-411 -323h-176z" />
<glyph unicode="&#xde;" horiz-adv-x="1431" d="M164 0l289 1485h307l-51 -266h141q109 0 167 -2.5t145 -11.5t149.5 -33.5t109.5 -65.5q106 -92 107 -240q0 -119 -65.5 -238.5t-180.5 -199.5q-68 -45 -140.5 -72.5t-160.5 -39t-145.5 -13.5t-163.5 -2h-142l-59 -301h-307zM569 504h295q90 0 161 32.5t111 84t60.5 104.5 t20.5 104q0 82 -59.5 134.5t-194.5 52.5h-295z" />
<glyph unicode="&#xdf;" horiz-adv-x="1406" d="M154 0l217 1112q10 59 17 91t23.5 84t36 85t52 72t75.5 67q156 102 375 103q184 0 302 -78t118 -211q0 -78 -39 -154.5t-94 -135t-110 -105.5l-93 -83q-39 -36 -39 -52q0 -25 20.5 -46.5t40 -34t56.5 -30.5l102 -53q86 -43 133.5 -96.5t47.5 -137.5q0 -29 -6 -61 q-33 -166 -185.5 -269.5t-367.5 -103.5q-248 0 -330 47l45 234q154 -88 360 -88q80 0 126 37.5t46 80.5q0 29 -26.5 56.5t-51 43t-69.5 38.5l-102 51q-68 35 -107 97.5t-39 135.5q0 74 40 142.5t97 123.5l114 105q56 51 96 110.5t40 116.5t-39 92t-106 35q-92 0 -160 -55 q-33 -25 -54.5 -62.5t-28.5 -65.5t-17 -79l-226 -1159h-290z" />
<glyph unicode="&#xe0;" horiz-adv-x="1187" d="M133 213q0 39 9.5 78t31 86t68.5 94t112 82q180 94 535 100l14 70q10 61 10 92q0 55 -35.5 85t-129.5 30q-156 0 -392 -101l41 213q180 80 422 80q115 0 195 -19.5t122 -55t59 -78.5t17 -103q0 -59 -24 -186l-133 -680h-293l20 109q-197 -145 -370 -146q-127 0 -203 68.5 t-76 181.5zM430 260q0 -49 34 -76.5t99 -27.5q111 0 246 90l49 252q-205 -2 -307 -58q-121 -71 -121 -180zM545 1581h291l170 -324h-177z" />
<glyph unicode="&#xe1;" horiz-adv-x="1187" d="M133 213q0 39 9.5 78t31 86t68.5 94t112 82q180 94 535 100l14 70q10 61 10 92q0 55 -35.5 85t-129.5 30q-156 0 -392 -101l41 213q180 80 422 80q115 0 195 -19.5t122 -55t59 -78.5t17 -103q0 -59 -24 -186l-133 -680h-293l20 109q-197 -145 -370 -146q-127 0 -203 68.5 t-76 181.5zM430 260q0 -49 34 -76.5t99 -27.5q111 0 246 90l49 252q-205 -2 -307 -58q-121 -71 -121 -180zM655 1257l297 324h291l-412 -324h-176z" />
<glyph unicode="&#xe2;" horiz-adv-x="1187" d="M133 213q0 39 9.5 78t31 86t68.5 94t112 82q180 94 535 100l14 70q10 61 10 92q0 55 -35.5 85t-129.5 30q-156 0 -392 -101l41 213q180 80 422 80q115 0 195 -19.5t122 -55t59 -78.5t17 -103q0 -59 -24 -186l-133 -680h-293l20 109q-197 -145 -370 -146q-127 0 -203 68.5 t-76 181.5zM399 1257l338 265h291l236 -265h-234l-168 152l-229 -152h-234zM430 260q0 -49 34 -76.5t99 -27.5q111 0 246 90l49 252q-205 -2 -307 -58q-121 -71 -121 -180z" />
<glyph unicode="&#xe3;" horiz-adv-x="1187" d="M305 1282q0 174 109.5 298t261.5 124q66 0 124 -27.5t99 -66.5t75.5 -78t68.5 -66.5t65 -27.5q27 0 43 19.5t22 60.5t7 69.5t1 79.5h291q0 -174 -109.5 -298t-260.5 -124q-55 0 -106.5 19.5t-86.5 49.5t-69.5 64.5t-60.5 64.5t-54.5 49.5t-55.5 19.5t-43 -19.5t-22 -60.5 t-7 -70t-1 -80h-291zM133 213q0 39 9.5 78t31 86t68.5 94t112 82q180 94 535 100l14 70q10 61 10 92q0 55 -35.5 85t-129.5 30q-156 0 -392 -101l41 213q180 80 422 80q115 0 195 -19.5t122 -55t59 -78.5t17 -103q0 -59 -24 -186l-133 -680h-293l20 109q-197 -145 -370 -146 q-127 0 -203 68.5t-76 181.5zM430 260q0 -49 34 -76.5t99 -27.5q111 0 246 90l49 252q-205 -2 -307 -58q-121 -71 -121 -180z" />
<glyph unicode="&#xe4;" horiz-adv-x="1187" d="M133 213q0 39 9.5 78t31 86t68.5 94t112 82q180 94 535 100l14 70q10 61 10 92q0 55 -35.5 85t-129.5 30q-156 0 -392 -101l41 213q180 80 422 80q115 0 195 -19.5t122 -55t59 -78.5t17 -103q0 -59 -24 -186l-133 -680h-293l20 109q-197 -145 -370 -146q-127 0 -203 68.5 t-76 181.5zM426 1257l45 228h293l-45 -228h-293zM430 260q0 -49 34 -76.5t99 -27.5q111 0 246 90l49 252q-205 -2 -307 -58q-121 -71 -121 -180zM944 1257l45 228h293l-45 -228h-293z" />
<glyph unicode="&#xe5;" horiz-adv-x="1187" d="M133 213q0 39 9.5 78t31 86t68.5 94t112 82q180 94 535 100l14 70q10 61 10 92q0 55 -35.5 85t-129.5 30q-156 0 -392 -101l41 213q180 80 422 80q115 0 195 -19.5t122 -55t59 -78.5t17 -103q0 -59 -24 -186l-133 -680h-293l20 109q-197 -145 -370 -146q-127 0 -203 68.5 t-76 181.5zM430 260q0 -49 34 -76.5t99 -27.5q111 0 246 90l49 252q-205 -2 -307 -58q-121 -71 -121 -180zM537 1507q0 152 129 264.5t288 112.5q127 0 210 -73.5t83 -188.5q0 -152 -129 -264.5t-289 -112.5q-127 0 -209.5 73.5t-82.5 188.5zM715 1532q0 -61 40 -101 t103 -40q80 0 145.5 62.5t65.5 143.5q0 61 -40 101.5t-103 40.5q-80 0 -145.5 -62.5t-65.5 -144.5z" />
<glyph unicode="&#xe8;" horiz-adv-x="1196" d="M176 391q0 72 17 152q53 285 248.5 437.5t457.5 152.5q188 0 292.5 -78t104.5 -195q0 -113 -95 -212t-265 -150q-158 -47 -438 -47h-29q-2 -23 -2 -43q0 -252 260 -252q152 0 418 88l-43 -219q-182 -61 -400 -62q-147 0 -252.5 35t-164 96.5t-84 134t-25.5 162.5z M508 643h27q469 0 469 193q0 43 -33 73.5t-109 30.5q-37 0 -78 -10t-95 -38t-102 -92.5t-79 -156.5zM606 1581h291l170 -324h-176z" />
<glyph unicode="&#xe9;" horiz-adv-x="1196" d="M176 391q0 72 17 152q53 285 248.5 437.5t457.5 152.5q188 0 292.5 -78t104.5 -195q0 -113 -95 -212t-265 -150q-158 -47 -438 -47h-29q-2 -23 -2 -43q0 -252 260 -252q152 0 418 88l-43 -219q-182 -61 -397 -62q-150 0 -255.5 35t-164 96.5t-84 134t-25.5 162.5z M508 643h27q469 0 469 193q0 43 -33 73.5t-109 30.5q-37 0 -78 -10t-95 -38t-102 -92.5t-79 -156.5zM717 1257l297 324h291l-412 -324h-176z" />
<glyph unicode="&#xea;" horiz-adv-x="1196" d="M176 391q0 72 17 152q53 285 248.5 437.5t457.5 152.5q188 0 292.5 -78t104.5 -195q0 -113 -95 -212t-265 -150q-158 -47 -438 -47h-29q-2 -23 -2 -43q0 -252 260 -252q152 0 418 88l-43 -219q-182 -61 -400 -62q-147 0 -252.5 35t-164 96.5t-84 134t-25.5 162.5z M459 1257l338 265h290l236 -265h-233l-168 152l-230 -152h-233zM508 643h27q469 0 469 193q0 43 -33 73.5t-109 30.5q-37 0 -78 -10t-95 -38t-102 -92.5t-79 -156.5z" />
<glyph unicode="&#xeb;" horiz-adv-x="1196" d="M176 391q0 72 17 152q53 285 248.5 437.5t457.5 152.5q188 0 292.5 -78t104.5 -195q0 -113 -95 -212t-265 -150q-158 -47 -438 -47h-29q-2 -23 -2 -43q0 -252 260 -252q152 0 418 88l-43 -219q-182 -61 -400 -62q-147 0 -252.5 35t-164 96.5t-84 134t-25.5 162.5z M485 1257l45 228h293l-45 -228h-293zM508 643h27q469 0 469 193q0 43 -33 73.5t-109 30.5q-37 0 -78 -10t-95 -38t-102 -92.5t-79 -156.5zM1004 1257l45 228h292l-45 -228h-292z" />
<glyph unicode="&#xec;" horiz-adv-x="598" d="M154 0l211 1085h290l-211 -1085h-290zM258 1581h291l170 -324h-176z" />
<glyph unicode="&#xed;" horiz-adv-x="598" d="M154 0l211 1085h290l-211 -1085h-290zM369 1257l297 324h290l-411 -324h-176z" />
<glyph unicode="&#xee;" horiz-adv-x="598" d="M111 1257l338 265h290l236 -265h-234l-168 152l-229 -152h-233zM154 0l211 1085h290l-211 -1085h-290z" />
<glyph unicode="&#xef;" horiz-adv-x="598" d="M137 1257l45 228h293l-45 -228h-293zM154 0l211 1085h290l-211 -1085h-290zM655 1257l45 228h293l-45 -228h-293z" />
<glyph unicode="&#xf0;" horiz-adv-x="1280" d="M174 375q0 53 8 114.5t29.5 133t54.5 138t85 130t118 110t159 75t201 28.5q68 0 117 -12q-41 82 -100 151l-297 -100l-19 117l218 73q-92 72 -207 113l213 108q137 -47 247 -135l302 103l20 -117l-223 -76q221 -240 221 -588q0 -96 -17.5 -194t-66.5 -207t-123 -189.5 t-198.5 -134t-280.5 -53.5q-92 0 -170 20.5t-145.5 64.5t-106.5 128t-39 199zM469 403q0 -125 53 -186t150 -61q119 0 210 97t130 290h-2q20 106 20 184q0 121 -48 171t-138 50q-86 0 -154.5 -42t-108.5 -102.5t-67 -138t-36 -142.5t-9 -120z" />
<glyph unicode="&#xf1;" horiz-adv-x="1275" d="M342 1282q0 174 109.5 298t261.5 124q66 0 124 -27.5t99 -66.5t75.5 -78t68.5 -66.5t65 -27.5q27 0 43 19.5t22 60.5t7 69.5t1 79.5h291q0 -174 -109.5 -298t-260.5 -124q-55 0 -106.5 19.5t-86.5 49.5t-69.5 64.5t-60.5 64.5t-54.5 49.5t-55.5 19.5t-43 -19.5t-22 -60.5 t-7 -70t-1 -80h-291zM154 0l211 1085h290l-24 -122q188 160 391 159q145 0 202.5 -66.5t57.5 -174.5q0 -68 -27 -209l-131 -672h-290l139 719q14 70 14 102q0 109 -119 109q-137 0 -266 -117l-158 -813h-290z" />
<glyph unicode="&#xf2;" horiz-adv-x="1280" d="M164 408q0 129 47 254.5t133 229t220 167t296 63.5q231 0 350 -124t119 -320q0 -129 -47 -255t-133 -229.5t-220 -167t-296 -63.5q-231 0 -350 124t-119 321zM477 373q0 -115 57.5 -166t137.5 -51q51 0 96 17t75.5 43t56.5 66t40 70.5t26.5 73.5t16.5 61l10 45q0 8 2 11 q20 111 21 170q0 115 -57.5 166t-137.5 51q-51 0 -96 -17.5t-76 -43t-56.5 -65.5t-39.5 -71t-26.5 -74t-16.5 -61l-10 -45v-10q-23 -111 -23 -170zM598 1581h291l170 -324h-176z" />
<glyph unicode="&#xf3;" horiz-adv-x="1280" d="M164 408q0 129 47 254.5t133 229t220 167t296 63.5q231 0 350 -124t119 -320q0 -129 -47 -255t-133 -229.5t-220 -167t-294 -63.5q-233 0 -352 124t-119 321zM477 373q0 -115 57.5 -166t137.5 -51q51 0 96 17t75.5 43t56.5 66t40 70.5t26.5 73.5t16.5 61l10 45q0 8 2 11 q20 111 21 170q0 115 -57.5 166t-137.5 51q-51 0 -96 -17.5t-76 -43t-56.5 -65.5t-39.5 -71t-26.5 -74t-16.5 -61l-10 -45v-10q-23 -111 -23 -170zM709 1257l297 324h290l-411 -324h-176z" />
<glyph unicode="&#xf4;" horiz-adv-x="1280" d="M164 408q0 129 47 254.5t133 229t220 167t296 63.5q231 0 350 -124t119 -320q0 -129 -47 -255t-133 -229.5t-220 -167t-296 -63.5q-231 0 -350 124t-119 321zM453 1257l338 265h290l236 -265h-234l-168 152l-229 -152h-233zM477 373q0 -115 57.5 -166t137.5 -51 q51 0 96 17t75.5 43t56.5 66t40 70.5t26.5 73.5t16.5 61l10 45q0 8 2 11q20 111 21 170q0 115 -57.5 166t-137.5 51q-51 0 -96 -17.5t-76 -43t-56.5 -65.5t-39.5 -71t-26.5 -74t-16.5 -61l-10 -45v-10q-23 -111 -23 -170z" />
<glyph unicode="&#xf5;" horiz-adv-x="1280" d="M346 1282q0 174 109.5 298t261.5 124q66 0 124 -27.5t99 -66.5t75.5 -78t68.5 -66.5t65 -27.5q27 0 43 19.5t22 60.5t7 69.5t1 79.5h291q0 -174 -109.5 -298t-260.5 -124q-55 0 -106.5 19.5t-86.5 49.5t-69.5 64.5t-60.5 64.5t-54.5 49.5t-55.5 19.5t-43 -19.5t-22 -60.5 t-7 -70t-1 -80h-291zM164 408q0 129 47 254.5t133 229t220 167t296 63.5q231 0 350 -124t119 -320q0 -129 -47 -255t-133 -229.5t-220 -167t-294 -63.5q-233 0 -352 124t-119 321zM477 373q0 -115 57.5 -166t137.5 -51q51 0 96 17t75.5 43t56.5 66t40 70.5t26.5 73.5 t16.5 61l10 45q0 8 2 11q20 111 21 170q0 115 -57.5 166t-137.5 51q-51 0 -96 -17.5t-76 -43t-56.5 -65.5t-39.5 -71t-26.5 -74t-16.5 -61l-10 -45v-10q-23 -111 -23 -170z" />
<glyph unicode="&#xf6;" horiz-adv-x="1280" d="M164 408q0 129 47 254.5t133 229t220 167t296 63.5q231 0 350 -124t119 -320q0 -129 -47 -255t-133 -229.5t-220 -167t-296 -63.5q-231 0 -350 124t-119 321zM477 373q0 -115 57.5 -166t137.5 -51q51 0 96 17t75.5 43t56.5 66t40 70.5t26.5 73.5t16.5 61l10 45q0 8 2 11 q20 111 21 170q0 115 -57.5 166t-137.5 51q-51 0 -96 -17.5t-76 -43t-56.5 -65.5t-39.5 -71t-26.5 -74t-16.5 -61l-10 -45v-10q-23 -111 -23 -170zM479 1257l45 228h293l-45 -228h-293zM997 1257l45 228h293l-45 -228h-293z" />
<glyph unicode="&#xf9;" horiz-adv-x="1275" d="M207 211q0 66 29 207l129 667h290l-139 -716q-14 -70 -14 -103q0 -111 121 -110q135 0 264 116l157 813h291l-211 -1085h-290l24 123q-186 -160 -383 -160q-53 0 -97 11.5t-84 38t-63.5 76.5t-23.5 122zM596 1581h291l170 -324h-176z" />
<glyph unicode="&#xfa;" horiz-adv-x="1275" d="M207 211q0 66 29 207l129 667h290l-139 -716q-14 -70 -14 -103q0 -111 121 -110q135 0 264 116l157 813h291l-211 -1085h-290l24 123q-186 -160 -383 -160q-53 0 -97 11.5t-84 38t-63.5 76.5t-23.5 122zM707 1257l297 324h290l-411 -324h-176z" />
<glyph unicode="&#xfb;" horiz-adv-x="1275" d="M207 211q0 66 29 207l129 667h290l-139 -716q-14 -70 -14 -103q0 -111 121 -110q135 0 264 116l157 813h291l-211 -1085h-290l24 123q-186 -160 -383 -160q-53 0 -97 11.5t-84 38t-63.5 76.5t-23.5 122zM451 1257l337 265h291l236 -265h-234l-168 152l-229 -152h-233z " />
<glyph unicode="&#xfc;" horiz-adv-x="1275" d="M207 211q0 66 29 207l129 667h290l-139 -716q-14 -70 -14 -103q0 -111 121 -110q135 0 264 116l157 813h291l-211 -1085h-290l24 123q-186 -160 -383 -160q-53 0 -97 11.5t-84 38t-63.5 76.5t-23.5 122zM477 1257l45 228h293l-45 -228h-293zM995 1257l45 228h293 l-45 -228h-293z" />
<glyph unicode="&#xfd;" horiz-adv-x="1148" d="M88 -377l39 201q133 -27 223 -27q74 0 131.5 14.5t88 31t55 50t32 49t19.5 52.5l14 37q-68 -49 -143 -49q-106 0 -182 86q-35 39 -55.5 98t-25.5 98t-10 121l-43 700h291l49 -708q10 -240 45 -240q80 0 142 92l291 856h292l-362 -1065l-22 -61q-7 -20 -26.5 -61 t-35.5 -63.5t-47 -58.5t-64.5 -56.5t-83 -45t-106.5 -38t-134 -22.5t-165 -9q-115 0 -207 18zM643 1257l297 324h291l-412 -324h-176z" />
<glyph unicode="&#xfe;" horiz-adv-x="1230" d="M76 -395l385 1972h291l-129 -657q170 203 389 202q53 0 100 -14t92 -48t70.5 -101.5t25.5 -161.5q0 -147 -57 -320.5t-170 -300.5q-96 -104 -226 -158.5t-321 -54.5q-47 0 -88 4l-71 -362h-291zM477 168q53 -12 103 -12q86 0 152.5 33.5t108.5 97t68.5 136.5t44.5 171 q23 111 23 180q0 84 -29.5 120t-89.5 36q-72 0 -146.5 -48t-119.5 -124z" />
<glyph unicode="&#xff;" horiz-adv-x="1148" d="M88 -377l39 201q133 -27 223 -27q74 0 131.5 14.5t88 31t55 50t32 49t19.5 52.5l14 37q-68 -49 -143 -49q-106 0 -182 86q-35 39 -55.5 98t-25.5 98t-10 121l-43 700h291l49 -708q10 -240 45 -240q80 0 142 92l291 856h292l-362 -1065l-22 -61q-7 -20 -26.5 -61 t-35.5 -63.5t-47 -58.5t-64.5 -56.5t-83 -45t-106.5 -38t-134 -22.5t-165 -9q-115 0 -207 18zM414 1257l45 228h293l-45 -228h-293zM932 1257l45 228h293l-45 -228h-293z" />
<glyph unicode="&#x152;" horiz-adv-x="3100" d="M1915 0l289 1485h1106l-39 -203h-799l-76 -387h637l-39 -203h-637l-96 -489h823l-39 -203h-1130zM193 559q0 139 38.5 276.5t119.5 264.5t196 224t277.5 155.5t351.5 58.5q168 0 299 -47t211.5 -130t121.5 -193.5t41 -241.5q0 -135 -37.5 -271.5t-118.5 -263.5t-194 -226 t-277.5 -158.5t-355.5 -59.5q-332 0 -502.5 169t-170.5 443zM524 522q0 -106 34 -183t92.5 -116t121 -56t133.5 -17q197 0 340 110q104 82 159.5 203t88.5 280q25 127 25 218q0 109 -34 185.5t-92.5 115t-121 56t-133.5 17.5q-197 0 -340 -110q-104 -82 -160.5 -203 t-85.5 -279q-27 -129 -27 -221z" />
<glyph unicode="&#x153;" horiz-adv-x="2476" d="M1456 391q0 72 17 152q53 285 248.5 437.5t457.5 152.5q188 0 292.5 -78t104.5 -195q0 -113 -95 -212t-265 -150q-158 -47 -438 -47h-29q-2 -23 -2 -43q0 -252 260 -252q152 0 418 88l-43 -219q-182 -61 -397 -62q-150 0 -255.5 35t-164 96.5t-84 134t-25.5 162.5z M1788 643h27q469 0 469 193q0 43 -33 73.5t-109 30.5q-37 0 -78 -10t-95 -38t-102 -92.5t-79 -156.5zM164 408q0 129 47 254.5t133 229t220 167t296 63.5q231 0 350 -124t119 -320q0 -129 -47 -255t-133 -229.5t-220 -167t-294 -63.5q-233 0 -352 124t-119 321zM477 373 q0 -115 57.5 -166t137.5 -51q51 0 96 17t75.5 43t56.5 66t40 70.5t26.5 73.5t16.5 61l10 45q0 8 2 11q20 111 21 170q0 115 -57.5 166t-137.5 51q-51 0 -96 -17.5t-76 -43t-56.5 -65.5t-39.5 -71t-26.5 -74t-16.5 -61l-10 -45v-10q-23 -111 -23 -170z" />
<glyph unicode="&#x178;" horiz-adv-x="1468" d="M309 1485h307l310 -688l557 688h256l-723 -891l-115 -594h-307l115 594zM651 1657l45 227h293l-45 -227h-293zM1169 1657l45 227h293l-45 -227h-293z" />
<glyph unicode="&#x2c6;" horiz-adv-x="1454" d="M539 1257l338 265h290l236 -265h-234l-168 152l-229 -152h-233z" />
<glyph unicode="&#x2dc;" horiz-adv-x="512" d="M-514 160q0 174 109.5 298t261.5 124q66 0 124 -27.5t99 -66.5t75.5 -78t68.5 -66.5t65 -27.5q27 0 43 19.5t22 60.5t7 69.5t1 79.5h291q0 -174 -109.5 -298t-260.5 -124q-55 0 -106.5 19.5t-86.5 49.5t-69.5 64.5t-60.5 64.5t-54.5 49.5t-55.5 19.5t-43 -19.5t-22 -60.5 t-7 -70t-1 -80h-291z" />
<glyph unicode="&#x2000;" horiz-adv-x="1140" />
<glyph unicode="&#x2001;" horiz-adv-x="2283" />
<glyph unicode="&#x2002;" horiz-adv-x="1140" />
<glyph unicode="&#x2003;" horiz-adv-x="2283" />
<glyph unicode="&#x2004;" horiz-adv-x="759" />
<glyph unicode="&#x2005;" horiz-adv-x="569" />
<glyph unicode="&#x2006;" horiz-adv-x="378" />
<glyph unicode="&#x2007;" horiz-adv-x="378" />
<glyph unicode="&#x2008;" horiz-adv-x="284" />
<glyph unicode="&#x2009;" horiz-adv-x="456" />
<glyph unicode="&#x200a;" horiz-adv-x="124" />
<glyph unicode="&#x2010;" horiz-adv-x="614" d="M186 532l37 193h451l-37 -193h-451z" />
<glyph unicode="&#x2011;" horiz-adv-x="614" d="M186 532l37 193h451l-37 -193h-451z" />
<glyph unicode="&#x2012;" horiz-adv-x="614" d="M186 532l37 193h451l-37 -193h-451z" />
<glyph unicode="&#x2013;" horiz-adv-x="1024" d="M186 532v193h897v-193h-897z" />
<glyph unicode="&#x2014;" horiz-adv-x="2048" d="M186 532v193h1921v-193h-1921z" />
<glyph unicode="&#x2018;" horiz-adv-x="536" d="M211 879l39 194l323 537h183l-215 -537l-39 -194h-291z" />
<glyph unicode="&#x2019;" horiz-adv-x="536" d="M264 879l215 536l39 195h291l-39 -195l-324 -536h-182z" />
<glyph unicode="&#x201c;" horiz-adv-x="993" d="M252 879l39 194l323 537h183l-215 -537l-39 -194h-291zM707 879l38 194l322 537h182l-213 -537l-39 -194h-290z" />
<glyph unicode="&#x201d;" horiz-adv-x="993" d="M225 879l213 536l39 195h291l-39 -195l-321 -536h-183zM678 879l215 536l39 195h291l-39 -195l-324 -536h-182z" />
<glyph unicode="&#x2026;" horiz-adv-x="1855" d="M1401 0l57 291h291l-57 -291h-291zM782 0l57 291h291l-57 -291h-291zM164 0l57 291h291l-57 -291h-291z" />
<glyph unicode="&#x202f;" horiz-adv-x="456" />
<glyph unicode="&#x2039;" horiz-adv-x="1120" d="M82 592v74l958 434v-221l-530 -250l530 -250v-221z" />
<glyph unicode="&#x203a;" horiz-adv-x="1120" d="M82 158v221l530 250l-530 250v221l958 -434v-74z" />
<glyph unicode="&#x205f;" horiz-adv-x="569" />
<glyph unicode="&#x2122;" horiz-adv-x="3225" d="M1514 0l289 1485h462l132 -975l485 975h469l-289 -1485h-307l229 1180l-534 -1076h-307l-144 1076l-229 -1180h-256zM270 1282l39 203h1311l-39 -203h-502l-250 -1282h-307l250 1282h-502z" />
<glyph unicode="&#xe000;" horiz-adv-x="1085" d="M0 1085h1085v-1085h-1085v1085z" />
<glyph unicode="&#xfb01;" horiz-adv-x="1462" d="M1018 0l211 1085h290l-211 -1085h-290zM1261 1257l45 228h291l-45 -228h-291zM-137 -403l37 194q102 -31 168 -31q43 0 73.5 13.5t51 33t37 61.5t25.5 83l24 112l163 840h-192l33 172h192q23 104 44.5 176t61.5 145.5t92 118t134 72t188 27.5q98 0 197 -29l-37 -194 q-100 31 -156 30q-41 0 -71.5 -10t-53 -35.5t-37 -49t-27.5 -69t-19 -73.5l-19 -88q-2 -12 -4 -21h291l-33 -172h-291l-135 -694l-23 -118q-9 -44 -27 -107.5t-33 -101.5t-39.5 -87t-53.5 -78.5t-69 -61.5t-86 -48.5t-106.5 -27.5t-131.5 -11q-76 0 -168 29z" />
<glyph unicode="&#xfb02;" horiz-adv-x="1462" d="M1018 0l307 1577h291l-308 -1577h-290zM-137 -403l37 194q102 -31 168 -31q43 0 73.5 13.5t51 33t37 61.5t25.5 83l24 112l163 840h-192l33 172h192q23 104 44.5 176t61.5 145.5t92 118t134 72t188 27.5q98 0 197 -29l-37 -194q-100 31 -156 30q-41 0 -71.5 -10 t-53 -35.5t-37 -49t-27.5 -69t-19 -73.5l-19 -88q-2 -12 -4 -21h291l-33 -172h-291l-135 -694l-23 -118q-9 -44 -27 -107.5t-33 -101.5t-39.5 -87t-53.5 -78.5t-69 -61.5t-86 -48.5t-106.5 -27.5t-131.5 -11q-76 0 -168 29z" />
<glyph unicode="&#xfb03;" horiz-adv-x="2326" d="M1883 0l211 1085h290l-211 -1085h-290zM2126 1257l45 228h291l-45 -228h-291zM727 -403l37 194q102 -31 168 -31q43 0 73.5 13.5t51 33t37 61.5t25.5 83l24 112l163 840h-192l33 172h192q23 104 44.5 176t61.5 145.5t92 118t134 72t188 27.5q98 0 197 -29l-37 -194 q-100 31 -156 30q-41 0 -71.5 -10t-53 -35.5t-37 -49t-27.5 -69t-19 -73.5l-19 -88q-2 -12 -4 -21h291l-33 -172h-291l-135 -694l-23 -118q-9 -44 -27 -107.5t-33 -101.5t-39.5 -87t-53.5 -78.5t-69 -61.5t-86 -48.5t-106.5 -27.5t-131.5 -11q-76 0 -168 29zM-137 -403 l37 194q102 -31 168 -31q43 0 73.5 13.5t51 33t37 61.5t25.5 83l24 112l163 840h-192l33 172h192q23 104 44.5 176t61.5 145.5t92 118t134 72t188 27.5q98 0 197 -29l-37 -194q-100 31 -156 30q-41 0 -71.5 -10t-53 -35.5t-37 -49t-27.5 -69t-19 -73.5l-19 -88 q-2 -12 -4 -21h291l-33 -172h-291l-135 -694l-23 -118q-9 -44 -27 -107.5t-33 -101.5t-39.5 -87t-53.5 -78.5t-69 -61.5t-86 -48.5t-106.5 -27.5t-131.5 -11q-76 0 -168 29z" />
<glyph unicode="&#xfb04;" horiz-adv-x="2326" d="M1883 0l307 1577h291l-308 -1577h-290zM727 -403l37 194q102 -31 168 -31q43 0 73.5 13.5t51 33t37 61.5t25.5 83l24 112l163 840h-192l33 172h192q23 104 44.5 176t61.5 145.5t92 118t134 72t188 27.5q98 0 197 -29l-37 -194q-100 31 -156 30q-41 0 -71.5 -10t-53 -35.5 t-37 -49t-27.5 -69t-19 -73.5l-19 -88q-2 -12 -4 -21h291l-33 -172h-291l-135 -694l-23 -118q-9 -44 -27 -107.5t-33 -101.5t-39.5 -87t-53.5 -78.5t-69 -61.5t-86 -48.5t-106.5 -27.5t-131.5 -11q-76 0 -168 29zM-137 -403l37 194q102 -31 168 -31q43 0 73.5 13.5t51 33 t37 61.5t25.5 83l24 112l163 840h-192l33 172h192q23 104 44.5 176t61.5 145.5t92 118t134 72t188 27.5q98 0 197 -29l-37 -194q-100 31 -156 30q-41 0 -71.5 -10t-53 -35.5t-37 -49t-27.5 -69t-19 -73.5l-19 -88q-2 -12 -4 -21h291l-33 -172h-291l-135 -694l-23 -118 q-9 -44 -27 -107.5t-33 -101.5t-39.5 -87t-53.5 -78.5t-69 -61.5t-86 -48.5t-106.5 -27.5t-131.5 -11q-76 0 -168 29z" />
</font>
</defs>
</svg>
